<?xml version="1.0" encoding="UTF-8" standalone="no"?>
<!-- Created with Inkscape (http://www.inkscape.org/) -->

<svg
   version="1.1"
   id="svg824"
   xml:space="preserve"
   width="960"
   height="480"
   viewBox="0 0 960 480"
   sodipodi:docname="AccPerMFlt_wide.svg"
   inkscape:version="1.1.1 (3bf5ae0d25, 2021-09-20)"
   xmlns:inkscape="http://www.inkscape.org/namespaces/inkscape"
   xmlns:sodipodi="http://sodipodi.sourceforge.net/DTD/sodipodi-0.dtd"
   xmlns="http://www.w3.org/2000/svg"
   xmlns:svg="http://www.w3.org/2000/svg"><defs
     id="defs828"><clipPath
       clipPathUnits="userSpaceOnUse"
       id="clipPath860"><path
         d="M 0,0 H 720 V 360 H 0 Z"
         id="path858" /></clipPath><clipPath
       clipPathUnits="userSpaceOnUse"
       id="clipPath872"><path
         d="M 28.3,31.26 H 714.52 V 336.71 H 28.3 Z"
         id="path870" /></clipPath></defs><sodipodi:namedview
     id="namedview826"
     pagecolor="#ffffff"
     bordercolor="#666666"
     borderopacity="1.0"
     inkscape:pageshadow="2"
     inkscape:pageopacity="0.0"
     inkscape:pagecheckerboard="0"
     showgrid="false"
     inkscape:zoom="0.93249707"
     inkscape:cx="457.91029"
     inkscape:cy="227.88275"
     inkscape:window-width="1920"
     inkscape:window-height="1009"
     inkscape:window-x="1358"
     inkscape:window-y="-8"
     inkscape:window-maximized="1"
     inkscape:current-layer="g830" /><g
     id="g830"
     inkscape:groupmode="layer"
     inkscape:label="AccPerMFlt_wide"
     transform="matrix(1.3333333,0,0,-1.3333333,0,480)"><g
       id="g832" /><g
       id="g834" /><g
       id="g836" /><g
       id="g838" /><g
       id="g840" /><g
       id="g842" /><g
       id="g844" /><g
       id="g846" /><g
       id="g848" /><g
       id="g850" /><g
       id="g852" /><g
       id="g854"><g
         id="g856"
         clip-path="url(#clipPath860)"><path
           d="M 0,0 H 720 V 360 H 0 Z"
           style="fill:#ffffff;fill-opacity:1;fill-rule:nonzero;stroke:#ffffff;stroke-width:1.07;stroke-linecap:round;stroke-linejoin:round;stroke-miterlimit:10;stroke-dasharray:none;stroke-opacity:1"
           id="path862" /></g></g><g
       id="g864" /><g
       id="g866"><g
         id="g868"
         clip-path="url(#clipPath872)"><path
           d="M 28.3,31.26 H 714.52 V 336.71 H 28.3 Z"
           style="fill:#ffffff;fill-opacity:1;fill-rule:nonzero;stroke:none"
           id="path874" /><path
           d="m 59.49,45.14 h 9.82 v 233.91 h -9.82 z"
           style="fill:#2e4bb1;fill-opacity:1;fill-rule:nonzero;stroke:none"
           id="path876" /><path
           d="m 71.77,45.14 h 9.82 V 233.4 h -9.82 z"
           style="fill:#2e4bb1;fill-opacity:1;fill-rule:nonzero;stroke:none"
           id="path878" /><path
           d="m 84.05,45.14 h 9.82 v 277.68 h -9.82 z"
           style="fill:#2e4bb1;fill-opacity:1;fill-rule:nonzero;stroke:none"
           id="path880" /><path
           d="m 96.34,45.14 h 9.82 v 240.97 h -9.82 z"
           style="fill:#2e4bb1;fill-opacity:1;fill-rule:nonzero;stroke:none"
           id="path882" /><path
           d="m 108.62,45.14 h 9.82 v 233.91 h -9.82 z"
           style="fill:#2e4bb1;fill-opacity:1;fill-rule:nonzero;stroke:none"
           id="path884" /><path
           d="m 120.9,45.14 h 9.82 v 183.08 h -9.82 z"
           style="fill:#2e4bb1;fill-opacity:1;fill-rule:nonzero;stroke:none"
           id="path886" /><path
           d="M 133.18,45.14 H 143 v 201.91 h -9.82 z"
           style="fill:#2e4bb1;fill-opacity:1;fill-rule:nonzero;stroke:none"
           id="path888" /><path
           d="m 145.46,45.14 h 9.82 v 142.6 h -9.82 z"
           style="fill:#2e4bb1;fill-opacity:1;fill-rule:nonzero;stroke:none"
           id="path890" /><path
           d="m 157.74,45.14 h 9.82 v 166.61 h -9.82 z"
           style="fill:#2e4bb1;fill-opacity:1;fill-rule:nonzero;stroke:none"
           id="path892" /><path
           d="m 170.02,45.14 h 9.82 v 181.2 h -9.82 z"
           style="fill:#2e4bb1;fill-opacity:1;fill-rule:nonzero;stroke:none"
           id="path894" /><path
           d="m 182.3,45.14 h 9.82 v 114.37 h -9.82 z"
           style="fill:#2e4bb1;fill-opacity:1;fill-rule:nonzero;stroke:none"
           id="path896" /><path
           d="m 194.58,45.14 h 9.82 v 123.78 h -9.82 z"
           style="fill:#2e4bb1;fill-opacity:1;fill-rule:nonzero;stroke:none"
           id="path898" /><path
           d="m 206.86,45.14 h 9.82 v 127.54 h -9.82 z"
           style="fill:#2e4bb1;fill-opacity:1;fill-rule:nonzero;stroke:none"
           id="path900" /><path
           d="m 219.14,45.14 h 9.82 v 127.07 h -9.82 z"
           style="fill:#2e4bb1;fill-opacity:1;fill-rule:nonzero;stroke:none"
           id="path902" /><path
           d="m 231.42,45.14 h 9.82 v 86.6 h -9.82 z"
           style="fill:#2e4bb1;fill-opacity:1;fill-rule:nonzero;stroke:none"
           id="path904" /><path
           d="m 243.7,45.14 h 9.82 v 118.6 h -9.82 z"
           style="fill:#2e4bb1;fill-opacity:1;fill-rule:nonzero;stroke:none"
           id="path906" /><path
           d="m 255.98,45.14 h 9.82 v 118.6 h -9.82 z"
           style="fill:#2e4bb1;fill-opacity:1;fill-rule:nonzero;stroke:none"
           id="path908" /><path
           d="m 268.26,45.14 h 9.82 v 110.13 h -9.82 z"
           style="fill:#2e4bb1;fill-opacity:1;fill-rule:nonzero;stroke:none"
           id="path910" /><path
           d="m 280.54,45.14 h 9.82 v 135.54 h -9.82 z"
           style="fill:#2e4bb1;fill-opacity:1;fill-rule:nonzero;stroke:none"
           id="path912" /><path
           d="m 292.82,45.14 h 9.82 v 134.13 h -9.82 z"
           style="fill:#2e4bb1;fill-opacity:1;fill-rule:nonzero;stroke:none"
           id="path914" /><path
           d="m 305.1,45.14 h 9.82 v 87.07 h -9.82 z"
           style="fill:#2e4bb1;fill-opacity:1;fill-rule:nonzero;stroke:none"
           id="path916" /><path
           d="m 317.38,45.14 h 9.82 v 91.78 h -9.82 z"
           style="fill:#2e4bb1;fill-opacity:1;fill-rule:nonzero;stroke:none"
           id="path918" /><path
           d="m 329.66,45.14 h 9.82 v 104.01 h -9.82 z"
           style="fill:#2e4bb1;fill-opacity:1;fill-rule:nonzero;stroke:none"
           id="path920" /><path
           d="m 341.94,45.14 h 9.82 v 96.95 h -9.82 z"
           style="fill:#2e4bb1;fill-opacity:1;fill-rule:nonzero;stroke:none"
           id="path922" /><path
           d="m 354.22,45.14 h 9.82 v 90.36 h -9.82 z"
           style="fill:#2e4bb1;fill-opacity:1;fill-rule:nonzero;stroke:none"
           id="path924" /><path
           d="m 366.5,45.14 h 9.82 v 91.3 h -9.82 z"
           style="fill:#2e4bb1;fill-opacity:1;fill-rule:nonzero;stroke:none"
           id="path926" /><path
           d="m 378.78,45.14 h 9.82 v 69.65 h -9.82 z"
           style="fill:#2e4bb1;fill-opacity:1;fill-rule:nonzero;stroke:none"
           id="path928" /><path
           d="m 391.06,45.14 h 9.82 v 74.83 h -9.82 z"
           style="fill:#2e4bb1;fill-opacity:1;fill-rule:nonzero;stroke:none"
           id="path930" /><path
           d="m 403.34,45.14 h 9.82 v 62.12 h -9.82 z"
           style="fill:#2e4bb1;fill-opacity:1;fill-rule:nonzero;stroke:none"
           id="path932" /><path
           d="m 415.62,45.14 h 9.82 v 61.18 h -9.82 z"
           style="fill:#2e4bb1;fill-opacity:1;fill-rule:nonzero;stroke:none"
           id="path934" /><path
           d="m 427.9,45.14 h 9.82 v 57.89 h -9.82 z"
           style="fill:#2e4bb1;fill-opacity:1;fill-rule:nonzero;stroke:none"
           id="path936" /><path
           d="M 440.18,45.14 H 450 v 61.18 h -9.82 z"
           style="fill:#2e4bb1;fill-opacity:1;fill-rule:nonzero;stroke:none"
           id="path938" /><path
           d="m 452.46,45.14 h 9.82 v 47.53 h -9.82 z"
           style="fill:#2e4bb1;fill-opacity:1;fill-rule:nonzero;stroke:none"
           id="path940" /><path
           d="m 464.74,45.14 h 9.82 v 35.3 h -9.82 z"
           style="fill:#2e4bb1;fill-opacity:1;fill-rule:nonzero;stroke:none"
           id="path942" /><path
           d="m 477.02,45.14 h 9.82 v 29.65 h -9.82 z"
           style="fill:#2e4bb1;fill-opacity:1;fill-rule:nonzero;stroke:none"
           id="path944" /><path
           d="m 489.3,45.14 h 9.82 v 46.59 h -9.82 z"
           style="fill:#2e4bb1;fill-opacity:1;fill-rule:nonzero;stroke:none"
           id="path946" /><path
           d="m 501.58,45.14 h 9.82 v 32 h -9.82 z"
           style="fill:#2e4bb1;fill-opacity:1;fill-rule:nonzero;stroke:none"
           id="path948" /><path
           d="m 513.86,45.14 h 9.82 v 32.47 h -9.82 z"
           style="fill:#2e4bb1;fill-opacity:1;fill-rule:nonzero;stroke:none"
           id="path950" /><path
           d="m 526.14,45.14 h 9.82 v 29.65 h -9.82 z"
           style="fill:#2e4bb1;fill-opacity:1;fill-rule:nonzero;stroke:none"
           id="path952" /><path
           d="m 538.42,45.14 h 9.82 v 21.65 h -9.82 z"
           style="fill:#2e4bb1;fill-opacity:1;fill-rule:nonzero;stroke:none"
           id="path954" /><path
           d="m 550.7,45.14 h 9.82 v 30.12 h -9.82 z"
           style="fill:#2e4bb1;fill-opacity:1;fill-rule:nonzero;stroke:none"
           id="path956" /><path
           d="m 562.98,45.14 h 9.82 v 35.3 h -9.82 z"
           style="fill:#2e4bb1;fill-opacity:1;fill-rule:nonzero;stroke:none"
           id="path958" /><path
           d="m 575.26,45.14 h 9.82 V 60.2 h -9.82 z"
           style="fill:#2e4bb1;fill-opacity:1;fill-rule:nonzero;stroke:none"
           id="path960" /><path
           d="m 587.54,45.14 h 9.82 v 22.59 h -9.82 z"
           style="fill:#2e4bb1;fill-opacity:1;fill-rule:nonzero;stroke:none"
           id="path962" /><path
           d="m 599.82,45.14 h 9.82 v 11.77 h -9.82 z"
           style="fill:#2e4bb1;fill-opacity:1;fill-rule:nonzero;stroke:none"
           id="path964" /><path
           d="m 612.1,45.14 h 9.82 v 9.88 h -9.82 z"
           style="fill:#2e4bb1;fill-opacity:1;fill-rule:nonzero;stroke:none"
           id="path966" /><path
           d="m 624.38,45.14 h 9.82 V 60.2 h -9.82 z"
           style="fill:#2e4bb1;fill-opacity:1;fill-rule:nonzero;stroke:none"
           id="path968" /><path
           d="m 636.66,45.14 h 9.82 v 6.59 h -9.82 z"
           style="fill:#2e4bb1;fill-opacity:1;fill-rule:nonzero;stroke:none"
           id="path970" /><path
           d="m 648.94,45.14 h 9.82 v 14.12 h -9.82 z"
           style="fill:#2e4bb1;fill-opacity:1;fill-rule:nonzero;stroke:none"
           id="path972" /><path
           d="m 661.22,45.14 h 9.82 v 17.41 h -9.82 z"
           style="fill:#2e4bb1;fill-opacity:1;fill-rule:nonzero;stroke:none"
           id="path974" /><path
           d="m 673.5,45.14 h 9.82 v 9.88 h -9.82 z"
           style="fill:#2e4bb1;fill-opacity:1;fill-rule:nonzero;stroke:none"
           id="path976" /><path
           d="m 88.97,279.99 12.28,-9.88 12.28,2.35 12.28,-26.82 12.28,-15.06 12.28,-10.36 12.28,-13.65 12.28,-15.53 12.28,-3.29 12.28,-8 12.28,-18.83 12.28,0.94 12.28,-0.94 12.28,-3.76 12.28,1.88 12.28,9.41 12.28,-6.12 12.28,-5.64 12.28,-0.94 12.28,-8.01 12.28,-8.47 12.28,0.94 12.28,-4.7 12.28,-5.65 12.28,-7.06 12.28,-5.65 12.28,-7.06 12.28,-1.41 12.28,-5.65 12.28,-5.17 12.28,-6.59 12.28,-1.89 12.28,-6.11 12.28,-2.83 12.28,-1.41 12.28,-1.41 12.28,-3.3 12.28,0.48 12.28,-3.3 12.28,-1.41 12.29,-1.88 12.28,-4.24 12.28,-3.76 12.28,-1.89 12.28,-1.88 12.28,1.41 h 12.28"
           style="fill:none;stroke:#e61c23;stroke-width:2.13;stroke-linecap:butt;stroke-linejoin:round;stroke-miterlimit:10;stroke-dasharray:none;stroke-opacity:1"
           id="path978" /></g></g><text
       xml:space="preserve"
       style="font-style:normal;font-variant:normal;font-weight:normal;font-stretch:normal;font-size:9px;line-height:1.25;font-family:Georgia;-inkscape-font-specification:'Georgia, Normal';font-variant-ligatures:normal;font-variant-caps:normal;font-variant-numeric:normal;font-variant-east-asian:normal;fill:#000000;fill-opacity:1;stroke:none;stroke-width:0.75"
       x="2.7087479"
       y="-334.82541"
       id="text56695"
       transform="scale(1,-1)"><tspan
         sodipodi:role="line"
         id="tspan58641"
         x="2.7087479"
         y="-334.82541">With 5-year running average</tspan></text><g
       id="g980" /><g
       id="g982" /><g
       id="g984" /><g
       id="g986" /><g
       id="g988" /><g
       id="g990" /><g
       id="g992" /><g
       id="g994" /><g
       id="g996" /><g
       id="g998" /><g
       id="g1000" /><g
       id="g1002" /><g
       id="g1004"
       transform="matrix(1,0,0,0.96994598,0,0.93948862)"><path
         d="M 28.3,31.26 V 336.71"
         style="fill:none;stroke:#000000;stroke-width:1.07;stroke-linecap:butt;stroke-linejoin:round;stroke-miterlimit:10;stroke-dasharray:none;stroke-opacity:1"
         id="path1006" /></g><g
       id="g1008" /><g
       id="g1010" /><g
       id="g1012"><text
         transform="matrix(1,0,0,-1,18.37,41.91)"
         style="font-variant:normal;font-weight:normal;font-size:9px;font-family:Helvetica;-inkscape-font-specification:Helvetica;writing-mode:lr-tb;fill:#4d4d4d;fill-opacity:1;fill-rule:nonzero;stroke:none"
         id="text1016"><tspan
           x="0"
           y="0"
           id="tspan1014">0</tspan></text><text
         transform="matrix(1,0,0,-1,18.37,136.04)"
         style="font-variant:normal;font-weight:normal;font-size:9px;font-family:Helvetica;-inkscape-font-specification:Helvetica;writing-mode:lr-tb;fill:#4d4d4d;fill-opacity:1;fill-rule:nonzero;stroke:none"
         id="text1020"><tspan
           x="0"
           y="0"
           id="tspan1018">2</tspan></text><text
         transform="matrix(1,0,0,-1,18.37,230.17)"
         style="font-variant:normal;font-weight:normal;font-size:9px;font-family:Helvetica;-inkscape-font-specification:Helvetica;writing-mode:lr-tb;fill:#4d4d4d;fill-opacity:1;fill-rule:nonzero;stroke:none"
         id="text1024"><tspan
           x="0"
           y="0"
           id="tspan1022">4</tspan></text><text
         transform="matrix(1,0,0,-1,18.37,324.3)"
         style="font-variant:normal;font-weight:normal;font-size:9px;font-family:Helvetica;-inkscape-font-specification:Helvetica;writing-mode:lr-tb;fill:#4d4d4d;fill-opacity:1;fill-rule:nonzero;stroke:none"
         id="text1028"><tspan
           x="0"
           y="0"
           id="tspan1026">6</tspan></text></g><g
       id="g1030" /><g
       id="g1032"><path
         d="M 25.56,45.14 H 28.3"
         style="fill:none;stroke:#333333;stroke-width:1.07;stroke-linecap:butt;stroke-linejoin:round;stroke-miterlimit:10;stroke-dasharray:none;stroke-opacity:1"
         id="path1034" /><path
         d="M 25.56,139.27 H 28.3"
         style="fill:none;stroke:#333333;stroke-width:1.07;stroke-linecap:butt;stroke-linejoin:round;stroke-miterlimit:10;stroke-dasharray:none;stroke-opacity:1"
         id="path1036" /><path
         d="M 25.56,233.4 H 28.3"
         style="fill:none;stroke:#333333;stroke-width:1.07;stroke-linecap:butt;stroke-linejoin:round;stroke-miterlimit:10;stroke-dasharray:none;stroke-opacity:1"
         id="path1038" /><path
         d="M 25.56,327.53 H 28.3"
         style="fill:none;stroke:#333333;stroke-width:1.07;stroke-linecap:butt;stroke-linejoin:round;stroke-miterlimit:10;stroke-dasharray:none;stroke-opacity:1"
         id="path1040" /></g><g
       id="g1042" /><g
       id="g1044" /><g
       id="g1046" /><g
       id="g1048" /><g
       id="g1050" /><g
       id="g1052" /><g
       id="g1054"><path
         d="M 28.3,31.26 H 714.52"
         style="fill:none;stroke:#000000;stroke-width:1.07;stroke-linecap:butt;stroke-linejoin:round;stroke-miterlimit:10;stroke-dasharray:none;stroke-opacity:1"
         id="path1056" /></g><g
       id="g1058" /><g
       id="g1060" /><g
       id="g1062"><path
         d="m 64.41,28.52 v 2.74"
         style="fill:none;stroke:#333333;stroke-width:1.07;stroke-linecap:butt;stroke-linejoin:round;stroke-miterlimit:10;stroke-dasharray:none;stroke-opacity:1"
         id="path1064" /><path
         d="m 187.21,28.52 v 2.74"
         style="fill:none;stroke:#333333;stroke-width:1.07;stroke-linecap:butt;stroke-linejoin:round;stroke-miterlimit:10;stroke-dasharray:none;stroke-opacity:1"
         id="path1066" /><path
         d="m 310.01,28.52 v 2.74"
         style="fill:none;stroke:#333333;stroke-width:1.07;stroke-linecap:butt;stroke-linejoin:round;stroke-miterlimit:10;stroke-dasharray:none;stroke-opacity:1"
         id="path1068" /><path
         d="m 432.81,28.52 v 2.74"
         style="fill:none;stroke:#333333;stroke-width:1.07;stroke-linecap:butt;stroke-linejoin:round;stroke-miterlimit:10;stroke-dasharray:none;stroke-opacity:1"
         id="path1070" /><path
         d="m 555.61,28.52 v 2.74"
         style="fill:none;stroke:#333333;stroke-width:1.07;stroke-linecap:butt;stroke-linejoin:round;stroke-miterlimit:10;stroke-dasharray:none;stroke-opacity:1"
         id="path1072" /><path
         d="m 678.42,28.52 v 2.74"
         style="fill:none;stroke:#333333;stroke-width:1.07;stroke-linecap:butt;stroke-linejoin:round;stroke-miterlimit:10;stroke-dasharray:none;stroke-opacity:1"
         id="path1074" /></g><g
       id="g1076" /><g
       id="g1078"><text
         transform="matrix(1,0,0,-1,54.4,19.87)"
         style="font-variant:normal;font-weight:normal;font-size:9px;font-family:Helvetica;-inkscape-font-specification:Helvetica;writing-mode:lr-tb;fill:#4d4d4d;fill-opacity:1;fill-rule:nonzero;stroke:none"
         id="text1082"><tspan
           x="0 5.0040002 10.008 15.012"
           y="0"
           sodipodi:role="line"
           id="tspan1080">1970</tspan></text><text
         transform="matrix(1,0,0,-1,177.2,19.87)"
         style="font-variant:normal;font-weight:normal;font-size:9px;font-family:Helvetica;-inkscape-font-specification:Helvetica;writing-mode:lr-tb;fill:#4d4d4d;fill-opacity:1;fill-rule:nonzero;stroke:none"
         id="text1086"><tspan
           x="0 5.0040002 10.008 15.012"
           y="0"
           sodipodi:role="line"
           id="tspan1084">1980</tspan></text><text
         transform="matrix(1,0,0,-1,300,19.87)"
         style="font-variant:normal;font-weight:normal;font-size:9px;font-family:Helvetica;-inkscape-font-specification:Helvetica;writing-mode:lr-tb;fill:#4d4d4d;fill-opacity:1;fill-rule:nonzero;stroke:none"
         id="text1090"><tspan
           x="0 5.0040002 10.008 15.012"
           y="0"
           sodipodi:role="line"
           id="tspan1088">1990</tspan></text><text
         transform="matrix(1,0,0,-1,422.8,19.87)"
         style="font-variant:normal;font-weight:normal;font-size:9px;font-family:Helvetica;-inkscape-font-specification:Helvetica;writing-mode:lr-tb;fill:#4d4d4d;fill-opacity:1;fill-rule:nonzero;stroke:none"
         id="text1094"><tspan
           x="0 5.0040002 10.008 15.012"
           y="0"
           sodipodi:role="line"
           id="tspan1092">2000</tspan></text><text
         transform="matrix(1,0,0,-1,545.61,19.87)"
         style="font-variant:normal;font-weight:normal;font-size:9px;font-family:Helvetica;-inkscape-font-specification:Helvetica;writing-mode:lr-tb;fill:#4d4d4d;fill-opacity:1;fill-rule:nonzero;stroke:none"
         id="text1098"><tspan
           x="0 5.0040002 10.008 15.012"
           y="0"
           sodipodi:role="line"
           id="tspan1096">2010</tspan></text><text
         transform="matrix(1,0,0,-1,668.41,19.87)"
         style="font-variant:normal;font-weight:normal;font-size:9px;font-family:Helvetica;-inkscape-font-specification:Helvetica;writing-mode:lr-tb;fill:#4d4d4d;fill-opacity:1;fill-rule:nonzero;stroke:none"
         id="text1102"><tspan
           x="0 5.0040002 10.008 15.012"
           y="0"
           sodipodi:role="line"
           id="tspan1100">2020</tspan></text></g><g
       id="g1104" /><g
       id="g1106" /><g
       id="g1108" /><g
       id="g1110" /><g
       id="g1112" /><g
       id="g1114"><text
         transform="matrix(1,0,0,-1,360.57,7.73)"
         style="font-variant:normal;font-weight:normal;font-size:11px;font-family:Georgia;-inkscape-font-specification:'Georgia, Normal';writing-mode:lr-tb;fill:#000000;fill-opacity:1;fill-rule:nonzero;stroke:none;font-style:normal;font-stretch:normal;font-variant-ligatures:normal;font-variant-caps:normal;font-variant-numeric:normal;font-variant-east-asian:normal"
         id="text1118"><tspan
           x="0 5.7969999 11.913 18.028999"
           y="0"
           sodipodi:role="line"
           id="tspan1116">Year</tspan></text></g><g
       id="g1120" /><g
       id="g1122"><text
         transform="matrix(0,1,1,0,13.38,122.25)"
         style="font-variant:normal;font-weight:normal;font-size:11px;font-family:Georgia;-inkscape-font-specification:'Georgia, Normal';writing-mode:lr-tb;fill:#000000;fill-opacity:1;fill-rule:nonzero;stroke:none;font-style:normal;font-stretch:normal;font-variant-ligatures:normal;font-variant-caps:normal;font-variant-numeric:normal;font-variant-east-asian:normal"
         id="text1126"><tspan
           x="0 7.3369999 12.837 18.337 20.778999 26.895 33.011002 39.126999 42.185001 47.685001 50.743 56.859001 62.974998 66.638 69.695999 78.859001 88.022003 91.080002 97.801003 100.243 102.685 108.801 114.917 117.975"
           y="0"
           sodipodi:role="line"
           id="tspan1124">Accidents per MM Flights</tspan></text></g><g
       id="g1128" /><g
       id="g1130" /><g
       id="g1132" /><g
       id="g1134" /><g
       id="g1136" /><g
       id="g1138"
       transform="translate(-27,1.5)"><text
         transform="matrix(1,0,0,-1,28.3,345.19)"
         style="font-style:normal;font-variant:normal;font-weight:normal;font-stretch:normal;font-size:14px;font-family:Georgia;-inkscape-font-specification:'Georgia, Normal';font-variant-ligatures:normal;font-variant-caps:normal;font-variant-numeric:normal;font-variant-east-asian:normal;writing-mode:lr-tb;fill:#000000;fill-opacity:1;fill-rule:nonzero;stroke:none"
         id="text1142"><tspan
           sodipodi:role="line"
           id="tspan3152"
           x="0"
           y="0">FATAL ACCIDENTS PER MILLION FLIGHTS</tspan></text></g><g
       id="g1144" /><g
       id="g1146" /><g
       id="g1148" /><g
       id="g1150" /><g
       id="g1152" /><g
       id="g1154" /></g></svg>
