<?xml version="1.0" encoding="UTF-8" standalone="no"?>
<!-- Created with Inkscape (http://www.inkscape.org/) -->

<svg
   version="1.1"
   id="svg4637"
   xml:space="preserve"
   width="960"
   height="480"
   viewBox="0 0 960 480"
   sodipodi:docname="AccPerYr_wide.svg"
   inkscape:version="1.1.1 (3bf5ae0d25, 2021-09-20)"
   xmlns:inkscape="http://www.inkscape.org/namespaces/inkscape"
   xmlns:sodipodi="http://sodipodi.sourceforge.net/DTD/sodipodi-0.dtd"
   xmlns="http://www.w3.org/2000/svg"
   xmlns:svg="http://www.w3.org/2000/svg"><defs
     id="defs4641"><clipPath
       clipPathUnits="userSpaceOnUse"
       id="clipPath4673"><path
         d="M 0,0 H 720 V 360 H 0 Z"
         id="path4671" /></clipPath><clipPath
       clipPathUnits="userSpaceOnUse"
       id="clipPath4685"><path
         d="M 33.31,31.26 H 714.52 V 336.71 H 33.31 Z"
         id="path4683" /></clipPath></defs><sodipodi:namedview
     id="namedview4639"
     pagecolor="#ffffff"
     bordercolor="#666666"
     borderopacity="1.0"
     inkscape:pageshadow="2"
     inkscape:pageopacity="0.0"
     inkscape:pagecheckerboard="0"
     showgrid="false"
     inkscape:zoom="1.3847508"
     inkscape:cx="246.97585"
     inkscape:cy="173.67746"
     inkscape:window-width="1920"
     inkscape:window-height="1009"
     inkscape:window-x="1358"
     inkscape:window-y="-8"
     inkscape:window-maximized="1"
     inkscape:current-layer="g4643" /><g
     id="g4643"
     inkscape:groupmode="layer"
     inkscape:label="AccPerYr_wide"
     transform="matrix(1.3333333,0,0,-1.3333333,0,480)"><g
       id="g4645" /><g
       id="g4647" /><g
       id="g4649" /><g
       id="g4651" /><g
       id="g4653" /><g
       id="g4655" /><g
       id="g4657" /><g
       id="g4659" /><g
       id="g4661" /><g
       id="g4663" /><g
       id="g4665" /><g
       id="g4667"><g
         id="g4669"
         clip-path="url(#clipPath4673)"><path
           d="M 0,0 H 720 V 360 H 0 Z"
           style="fill:#ffffff;fill-opacity:1;fill-rule:nonzero;stroke:#ffffff;stroke-width:1.07;stroke-linecap:round;stroke-linejoin:round;stroke-miterlimit:10;stroke-dasharray:none;stroke-opacity:1"
           id="path4675" /></g></g><g
       id="g4677" /><g
       id="g4679"><g
         id="g4681"
         clip-path="url(#clipPath4685)"><path
           d="M 33.31,31.26 H 714.52 V 336.71 H 33.31 Z"
           style="fill:#ffffff;fill-opacity:1;fill-rule:nonzero;stroke:none"
           id="path4687" /><path
           d="m 64.27,45.14 h 9.75 v 233.05 h -9.75 z"
           style="fill:#2e4bb1;fill-opacity:1;fill-rule:nonzero;stroke:none"
           id="path4689" /><path
           d="m 76.46,45.14 h 9.75 v 188.42 h -9.75 z"
           style="fill:#2e4bb1;fill-opacity:1;fill-rule:nonzero;stroke:none"
           id="path4691" /><path
           d="M 88.65,45.14 H 98.4 V 322.82 H 88.65 Z"
           style="fill:#2e4bb1;fill-opacity:1;fill-rule:nonzero;stroke:none"
           id="path4693" /><path
           d="m 100.84,45.14 h 9.75 v 247.93 h -9.75 z"
           style="fill:#2e4bb1;fill-opacity:1;fill-rule:nonzero;stroke:none"
           id="path4695" /><path
           d="m 113.03,45.14 h 9.75 v 228.09 h -9.75 z"
           style="fill:#2e4bb1;fill-opacity:1;fill-rule:nonzero;stroke:none"
           id="path4697" /><path
           d="m 125.22,45.14 h 9.75 v 178.51 h -9.75 z"
           style="fill:#2e4bb1;fill-opacity:1;fill-rule:nonzero;stroke:none"
           id="path4699" /><path
           d="m 137.41,45.14 h 9.75 v 203.3 h -9.75 z"
           style="fill:#2e4bb1;fill-opacity:1;fill-rule:nonzero;stroke:none"
           id="path4701" /><path
           d="m 149.61,45.14 h 9.75 V 193.9 h -9.75 z"
           style="fill:#2e4bb1;fill-opacity:1;fill-rule:nonzero;stroke:none"
           id="path4703" /><path
           d="m 161.8,45.14 h 9.75 v 178.51 h -9.75 z"
           style="fill:#2e4bb1;fill-opacity:1;fill-rule:nonzero;stroke:none"
           id="path4705" /><path
           d="m 173.99,45.14 h 9.75 v 203.3 h -9.75 z"
           style="fill:#2e4bb1;fill-opacity:1;fill-rule:nonzero;stroke:none"
           id="path4707" /><path
           d="m 186.18,45.14 h 9.75 v 128.92 h -9.75 z"
           style="fill:#2e4bb1;fill-opacity:1;fill-rule:nonzero;stroke:none"
           id="path4709" /><path
           d="m 198.37,45.14 h 9.75 v 133.88 h -9.75 z"
           style="fill:#2e4bb1;fill-opacity:1;fill-rule:nonzero;stroke:none"
           id="path4711" /><path
           d="m 210.56,45.14 h 9.75 v 138.84 h -9.75 z"
           style="fill:#2e4bb1;fill-opacity:1;fill-rule:nonzero;stroke:none"
           id="path4713" /><path
           d="m 222.75,45.14 h 9.75 v 143.8 h -9.75 z"
           style="fill:#2e4bb1;fill-opacity:1;fill-rule:nonzero;stroke:none"
           id="path4715" /><path
           d="m 234.94,45.14 h 9.75 v 104.13 h -9.75 z"
           style="fill:#2e4bb1;fill-opacity:1;fill-rule:nonzero;stroke:none"
           id="path4717" /><path
           d="m 247.13,45.14 h 9.75 V 193.9 h -9.75 z"
           style="fill:#2e4bb1;fill-opacity:1;fill-rule:nonzero;stroke:none"
           id="path4719" /><path
           d="m 259.32,45.14 h 9.75 v 158.67 h -9.75 z"
           style="fill:#2e4bb1;fill-opacity:1;fill-rule:nonzero;stroke:none"
           id="path4721" /><path
           d="m 271.51,45.14 h 9.75 v 153.71 h -9.75 z"
           style="fill:#2e4bb1;fill-opacity:1;fill-rule:nonzero;stroke:none"
           id="path4723" /><path
           d="m 283.7,45.14 h 9.75 v 198.34 h -9.75 z"
           style="fill:#2e4bb1;fill-opacity:1;fill-rule:nonzero;stroke:none"
           id="path4725" /><path
           d="m 295.89,45.14 h 9.75 v 198.34 h -9.75 z"
           style="fill:#2e4bb1;fill-opacity:1;fill-rule:nonzero;stroke:none"
           id="path4727" /><path
           d="m 308.08,45.14 h 9.75 v 133.88 h -9.75 z"
           style="fill:#2e4bb1;fill-opacity:1;fill-rule:nonzero;stroke:none"
           id="path4729" /><path
           d="m 320.27,45.14 h 9.75 v 138.84 h -9.75 z"
           style="fill:#2e4bb1;fill-opacity:1;fill-rule:nonzero;stroke:none"
           id="path4731" /><path
           d="m 332.47,45.14 h 9.75 v 163.63 h -9.75 z"
           style="fill:#2e4bb1;fill-opacity:1;fill-rule:nonzero;stroke:none"
           id="path4733" /><path
           d="m 344.66,45.14 h 9.75 v 163.63 h -9.75 z"
           style="fill:#2e4bb1;fill-opacity:1;fill-rule:nonzero;stroke:none"
           id="path4735" /><path
           d="m 356.85,45.14 h 9.75 v 163.63 h -9.75 z"
           style="fill:#2e4bb1;fill-opacity:1;fill-rule:nonzero;stroke:none"
           id="path4737" /><path
           d="m 369.04,45.14 h 9.75 v 173.55 h -9.75 z"
           style="fill:#2e4bb1;fill-opacity:1;fill-rule:nonzero;stroke:none"
           id="path4739" /><path
           d="m 381.23,45.14 h 9.75 v 138.84 h -9.75 z"
           style="fill:#2e4bb1;fill-opacity:1;fill-rule:nonzero;stroke:none"
           id="path4741" /><path
           d="m 393.42,45.14 h 9.75 v 153.71 h -9.75 z"
           style="fill:#2e4bb1;fill-opacity:1;fill-rule:nonzero;stroke:none"
           id="path4743" /><path
           d="m 405.61,45.14 h 9.75 v 128.92 h -9.75 z"
           style="fill:#2e4bb1;fill-opacity:1;fill-rule:nonzero;stroke:none"
           id="path4745" /><path
           d="m 417.8,45.14 h 9.75 v 133.88 h -9.75 z"
           style="fill:#2e4bb1;fill-opacity:1;fill-rule:nonzero;stroke:none"
           id="path4747" /><path
           d="m 429.99,45.14 h 9.75 v 133.88 h -9.75 z"
           style="fill:#2e4bb1;fill-opacity:1;fill-rule:nonzero;stroke:none"
           id="path4749" /><path
           d="m 442.18,45.14 h 9.75 v 143.8 h -9.75 z"
           style="fill:#2e4bb1;fill-opacity:1;fill-rule:nonzero;stroke:none"
           id="path4751" /><path
           d="m 454.37,45.14 h 9.75 v 104.13 h -9.75 z"
           style="fill:#2e4bb1;fill-opacity:1;fill-rule:nonzero;stroke:none"
           id="path4753" /><path
           d="m 466.56,45.14 h 9.75 v 79.34 h -9.75 z"
           style="fill:#2e4bb1;fill-opacity:1;fill-rule:nonzero;stroke:none"
           id="path4755" /><path
           d="m 478.75,45.14 h 9.75 v 74.38 h -9.75 z"
           style="fill:#2e4bb1;fill-opacity:1;fill-rule:nonzero;stroke:none"
           id="path4757" /><path
           d="m 490.94,45.14 h 9.75 v 119.01 h -9.75 z"
           style="fill:#2e4bb1;fill-opacity:1;fill-rule:nonzero;stroke:none"
           id="path4759" /><path
           d="m 503.13,45.14 h 9.75 v 84.3 h -9.75 z"
           style="fill:#2e4bb1;fill-opacity:1;fill-rule:nonzero;stroke:none"
           id="path4761" /><path
           d="m 515.33,45.14 h 9.75 v 89.25 h -9.75 z"
           style="fill:#2e4bb1;fill-opacity:1;fill-rule:nonzero;stroke:none"
           id="path4763" /><path
           d="m 527.52,45.14 h 9.75 v 79.34 h -9.75 z"
           style="fill:#2e4bb1;fill-opacity:1;fill-rule:nonzero;stroke:none"
           id="path4765" /><path
           d="m 539.71,45.14 h 9.75 v 59.5 h -9.75 z"
           style="fill:#2e4bb1;fill-opacity:1;fill-rule:nonzero;stroke:none"
           id="path4767" /><path
           d="m 551.9,45.14 h 9.75 v 94.21 h -9.75 z"
           style="fill:#2e4bb1;fill-opacity:1;fill-rule:nonzero;stroke:none"
           id="path4769" /><path
           d="m 564.09,45.14 h 9.75 v 114.05 h -9.75 z"
           style="fill:#2e4bb1;fill-opacity:1;fill-rule:nonzero;stroke:none"
           id="path4771" /><path
           d="m 576.28,45.14 h 9.75 v 49.59 h -9.75 z"
           style="fill:#2e4bb1;fill-opacity:1;fill-rule:nonzero;stroke:none"
           id="path4773" /><path
           d="m 588.47,45.14 h 9.75 v 74.38 h -9.75 z"
           style="fill:#2e4bb1;fill-opacity:1;fill-rule:nonzero;stroke:none"
           id="path4775" /><path
           d="m 600.66,45.14 h 9.75 v 39.67 h -9.75 z"
           style="fill:#2e4bb1;fill-opacity:1;fill-rule:nonzero;stroke:none"
           id="path4777" /><path
           d="m 612.85,45.14 h 9.75 v 34.71 h -9.75 z"
           style="fill:#2e4bb1;fill-opacity:1;fill-rule:nonzero;stroke:none"
           id="path4779" /><path
           d="m 625.04,45.14 h 9.75 v 54.54 h -9.75 z"
           style="fill:#2e4bb1;fill-opacity:1;fill-rule:nonzero;stroke:none"
           id="path4781" /><path
           d="m 637.23,45.14 h 9.75 v 24.79 h -9.75 z"
           style="fill:#2e4bb1;fill-opacity:1;fill-rule:nonzero;stroke:none"
           id="path4783" /><path
           d="m 649.42,45.14 h 9.75 v 54.54 h -9.75 z"
           style="fill:#2e4bb1;fill-opacity:1;fill-rule:nonzero;stroke:none"
           id="path4785" /><path
           d="m 661.61,45.14 h 9.75 v 69.42 h -9.75 z"
           style="fill:#2e4bb1;fill-opacity:1;fill-rule:nonzero;stroke:none"
           id="path4787" /><path
           d="m 673.8,45.14 h 9.75 v 19.83 h -9.75 z"
           style="fill:#2e4bb1;fill-opacity:1;fill-rule:nonzero;stroke:none"
           id="path4789" /><path
           d="m 69.15,270.26 12.19,9.92 h 12.19 l 12.19,-10.91 12.19,2.98 12.19,-25.79 12.19,-13.88 12.19,-4.96 12.19,-9.92 12.19,-13.88 12.19,-1.99 12.19,-6.94 12.2,-19.83 12.19,3.97 12.19,4.95 12.19,2.98 12.19,10.91 12.19,18.84 12.19,-2.97 12.19,-3.97 12.19,1.98 12.19,-6.94 12.19,-6.94 12.19,7.93 h 12.19 l 12.19,-1.98 12.19,-6.94 12.19,-5.95 12.2,-7.94 12.19,0.99 12.19,-9.91 12.19,-9.92 12.19,-11.9 12.19,-2.98 12.19,-11.9 12.19,-2.97 h 12.19 l 12.19,-2.98 12.19,-4.96 12.19,5.96 12.19,-7.94 12.19,-0.99 12.19,-3.97 12.2,-11.9 12.19,-11.9 12.19,-4.96 12.19,-3.96 12.19,5.95 12.19,-2.98 12.19,-6.94"
           style="fill:none;stroke:#e61c23;stroke-width:2.13;stroke-linecap:butt;stroke-linejoin:round;stroke-miterlimit:10;stroke-dasharray:none;stroke-opacity:1"
           id="path4791" /></g></g><g
       id="g4793" /><g
       id="g4795" /><g
       id="g4797" /><g
       id="g4799" /><g
       id="g4801" /><g
       id="g4803" /><g
       id="g4805" /><g
       id="g4807" /><g
       id="g4809" /><g
       id="g4811" /><g
       id="g4813" /><g
       id="g4815" /><g
       id="g4817"
       transform="matrix(1,0,0,0.95921717,0,1.2748713)"><path
         d="M 33.31,31.26 V 336.71"
         style="fill:none;stroke:#000000;stroke-width:1.07;stroke-linecap:butt;stroke-linejoin:round;stroke-miterlimit:10;stroke-dasharray:none;stroke-opacity:1"
         id="path4819" /></g><g
       id="g4821" /><g
       id="g4823" /><g
       id="g4825"><text
         transform="matrix(1,0,0,-1,23.37,41.91)"
         style="font-variant:normal;font-weight:normal;font-size:9px;font-family:Helvetica;-inkscape-font-specification:Helvetica;writing-mode:lr-tb;fill:#4d4d4d;fill-opacity:1;fill-rule:nonzero;stroke:none"
         id="text4829"><tspan
           x="0"
           y="0"
           id="tspan4827">0</tspan></text><text
         transform="matrix(1,0,0,-1,18.37,141.08)"
         style="font-variant:normal;font-weight:normal;font-size:9px;font-family:Helvetica;-inkscape-font-specification:Helvetica;writing-mode:lr-tb;fill:#4d4d4d;fill-opacity:1;fill-rule:nonzero;stroke:none"
         id="text4833"><tspan
           x="0 5.0040002"
           y="0"
           sodipodi:role="line"
           id="tspan4831">20</tspan></text><text
         transform="matrix(1,0,0,-1,18.37,240.26)"
         style="font-variant:normal;font-weight:normal;font-size:9px;font-family:Helvetica;-inkscape-font-specification:Helvetica;writing-mode:lr-tb;fill:#4d4d4d;fill-opacity:1;fill-rule:nonzero;stroke:none"
         id="text4837"><tspan
           x="0 5.0040002"
           y="0"
           sodipodi:role="line"
           id="tspan4835">40</tspan></text></g><g
       id="g4839" /><g
       id="g4841"><path
         d="m 30.57,45.14 h 2.74"
         style="fill:none;stroke:#333333;stroke-width:1.07;stroke-linecap:butt;stroke-linejoin:round;stroke-miterlimit:10;stroke-dasharray:none;stroke-opacity:1"
         id="path4843" /><path
         d="m 30.57,144.32 h 2.74"
         style="fill:none;stroke:#333333;stroke-width:1.07;stroke-linecap:butt;stroke-linejoin:round;stroke-miterlimit:10;stroke-dasharray:none;stroke-opacity:1"
         id="path4845" /><path
         d="m 30.57,243.49 h 2.74"
         style="fill:none;stroke:#333333;stroke-width:1.07;stroke-linecap:butt;stroke-linejoin:round;stroke-miterlimit:10;stroke-dasharray:none;stroke-opacity:1"
         id="path4847" /></g><g
       id="g4849" /><g
       id="g4851" /><g
       id="g4853" /><g
       id="g4855" /><g
       id="g4857" /><g
       id="g4859" /><g
       id="g4861"><path
         d="M 33.31,31.26 H 714.52"
         style="fill:none;stroke:#000000;stroke-width:1.07;stroke-linecap:butt;stroke-linejoin:round;stroke-miterlimit:10;stroke-dasharray:none;stroke-opacity:1"
         id="path4863" /></g><g
       id="g4865" /><g
       id="g4867" /><g
       id="g4869"><path
         d="m 69.15,28.52 v 2.74"
         style="fill:none;stroke:#333333;stroke-width:1.07;stroke-linecap:butt;stroke-linejoin:round;stroke-miterlimit:10;stroke-dasharray:none;stroke-opacity:1"
         id="path4871" /><path
         d="m 191.05,28.52 v 2.74"
         style="fill:none;stroke:#333333;stroke-width:1.07;stroke-linecap:butt;stroke-linejoin:round;stroke-miterlimit:10;stroke-dasharray:none;stroke-opacity:1"
         id="path4873" /><path
         d="m 312.96,28.52 v 2.74"
         style="fill:none;stroke:#333333;stroke-width:1.07;stroke-linecap:butt;stroke-linejoin:round;stroke-miterlimit:10;stroke-dasharray:none;stroke-opacity:1"
         id="path4875" /><path
         d="m 434.87,28.52 v 2.74"
         style="fill:none;stroke:#333333;stroke-width:1.07;stroke-linecap:butt;stroke-linejoin:round;stroke-miterlimit:10;stroke-dasharray:none;stroke-opacity:1"
         id="path4877" /><path
         d="m 556.77,28.52 v 2.74"
         style="fill:none;stroke:#333333;stroke-width:1.07;stroke-linecap:butt;stroke-linejoin:round;stroke-miterlimit:10;stroke-dasharray:none;stroke-opacity:1"
         id="path4879" /><path
         d="m 678.68,28.52 v 2.74"
         style="fill:none;stroke:#333333;stroke-width:1.07;stroke-linecap:butt;stroke-linejoin:round;stroke-miterlimit:10;stroke-dasharray:none;stroke-opacity:1"
         id="path4881" /></g><g
       id="g4883" /><g
       id="g4885"><text
         transform="matrix(1,0,0,-1,59.14,19.87)"
         style="font-variant:normal;font-weight:normal;font-size:9px;font-family:Helvetica;-inkscape-font-specification:Helvetica;writing-mode:lr-tb;fill:#4d4d4d;fill-opacity:1;fill-rule:nonzero;stroke:none"
         id="text4889"><tspan
           x="0 5.0040002 10.008 15.012"
           y="0"
           sodipodi:role="line"
           id="tspan4887">1970</tspan></text><text
         transform="matrix(1,0,0,-1,181.05,19.87)"
         style="font-variant:normal;font-weight:normal;font-size:9px;font-family:Helvetica;-inkscape-font-specification:Helvetica;writing-mode:lr-tb;fill:#4d4d4d;fill-opacity:1;fill-rule:nonzero;stroke:none"
         id="text4893"><tspan
           x="0 5.0040002 10.008 15.012"
           y="0"
           sodipodi:role="line"
           id="tspan4891">1980</tspan></text><text
         transform="matrix(1,0,0,-1,302.95,19.87)"
         style="font-variant:normal;font-weight:normal;font-size:9px;font-family:Helvetica;-inkscape-font-specification:Helvetica;writing-mode:lr-tb;fill:#4d4d4d;fill-opacity:1;fill-rule:nonzero;stroke:none"
         id="text4897"><tspan
           x="0 5.0040002 10.008 15.012"
           y="0"
           sodipodi:role="line"
           id="tspan4895">1990</tspan></text><text
         transform="matrix(1,0,0,-1,424.86,19.87)"
         style="font-variant:normal;font-weight:normal;font-size:9px;font-family:Helvetica;-inkscape-font-specification:Helvetica;writing-mode:lr-tb;fill:#4d4d4d;fill-opacity:1;fill-rule:nonzero;stroke:none"
         id="text4901"><tspan
           x="0 5.0040002 10.008 15.012"
           y="0"
           sodipodi:role="line"
           id="tspan4899">2000</tspan></text><text
         transform="matrix(1,0,0,-1,546.77,19.87)"
         style="font-variant:normal;font-weight:normal;font-size:9px;font-family:Helvetica;-inkscape-font-specification:Helvetica;writing-mode:lr-tb;fill:#4d4d4d;fill-opacity:1;fill-rule:nonzero;stroke:none"
         id="text4905"><tspan
           x="0 5.0040002 10.008 15.012"
           y="0"
           sodipodi:role="line"
           id="tspan4903">2010</tspan></text><text
         transform="matrix(1,0,0,-1,668.67,19.87)"
         style="font-variant:normal;font-weight:normal;font-size:9px;font-family:Helvetica;-inkscape-font-specification:Helvetica;writing-mode:lr-tb;fill:#4d4d4d;fill-opacity:1;fill-rule:nonzero;stroke:none"
         id="text4909"><tspan
           x="0 5.0040002 10.008 15.012"
           y="0"
           sodipodi:role="line"
           id="tspan4907">2020</tspan></text></g><g
       id="g4911" /><g
       id="g4913" /><g
       id="g4915" /><g
       id="g4917" /><g
       id="g4919" /><g
       id="g4921"><text
         transform="matrix(1,0,0,-1,363.07,7.73)"
         style="font-variant:normal;font-weight:normal;font-size:11px;font-family:Georgia;-inkscape-font-specification:'Georgia, Normal';writing-mode:lr-tb;fill:#000000;fill-opacity:1;fill-rule:nonzero;stroke:none;font-style:normal;font-stretch:normal;font-variant-ligatures:normal;font-variant-caps:normal;font-variant-numeric:normal;font-variant-east-asian:normal"
         id="text4925"><tspan
           x="0 5.7969999 11.913 18.028999"
           y="0"
           sodipodi:role="line"
           id="tspan4923">Year</tspan></text></g><g
       id="g4927" /><g
       id="g4929"><text
         transform="matrix(0,1,1,0,13.38,119.46)"
         style="font-variant:normal;font-weight:normal;font-size:11px;font-family:Georgia;-inkscape-font-specification:'Georgia, Normal';writing-mode:lr-tb;fill:#000000;fill-opacity:1;fill-rule:nonzero;stroke:none;font-style:normal;font-stretch:normal;font-variant-ligatures:normal;font-variant-caps:normal;font-variant-numeric:normal;font-variant-east-asian:normal"
         id="text4933"><tspan
           x="0 7.9419999 14.058 23.221001 29.337 35.452999 39.116001 42.174 48.290001 51.348 54.405998 60.577 66.693001 69.750999 75.866997 78.308998 81.366997 88.704002 94.204002 99.704002 102.146 108.262 114.378 120.494 123.552"
           y="0"
           sodipodi:role="line"
           id="tspan4931">Number of Fatal Accidents</tspan></text></g><g
       id="g4935" /><g
       id="g4937" /><g
       id="g4939" /><g
       id="g4941" /><g
       id="g4943" /><g
       id="g4945"
       transform="translate(-31.5)"><text
         transform="matrix(1,0,0,-1,33.31,345.19)"
         style="font-style:normal;font-variant:normal;font-weight:normal;font-stretch:normal;font-size:14px;font-family:Georgia;-inkscape-font-specification:'Georgia, Normal';font-variant-ligatures:normal;font-variant-caps:normal;font-variant-numeric:normal;font-variant-east-asian:normal;writing-mode:lr-tb;fill:#000000;fill-opacity:1;fill-rule:nonzero;stroke:none"
         id="text4949"><tspan
           sodipodi:role="line"
           id="tspan10824"
           x="0"
           y="0">YEARLY PASSENGER FLIGHTS WITH FATAL ACCIDENTS</tspan></text></g><g
       id="g4951" /><g
       id="g4953" /><g
       id="g4955" /><g
       id="g4957" /><g
       id="g4959" /><g
       id="g4961" /><text
       xml:space="preserve"
       style="font-style:normal;font-variant:normal;font-weight:normal;font-stretch:normal;font-size:9px;line-height:1.25;font-family:Georgia;-inkscape-font-specification:'Georgia, Normal';font-variant-ligatures:normal;font-variant-caps:normal;font-variant-numeric:normal;font-variant-east-asian:normal;fill:#000000;fill-opacity:1;stroke:none;stroke-width:0.75"
       x="4.4366989"
       y="-333.82953"
       id="text56695"
       transform="scale(1,-1)"><tspan
         sodipodi:role="line"
         id="tspan58641"
         x="4.4366989"
         y="-333.82953">With 5-year running average</tspan></text></g></svg>
