<?xml version="1.0" encoding="UTF-8" standalone="no"?>
<!-- Created with Inkscape (http://www.inkscape.org/) -->

<svg
   version="1.1"
   id="svg824"
   xml:space="preserve"
   width="576"
   height="480"
   viewBox="0 0 576 480"
   sodipodi:docname="AccPerYr.svg"
   inkscape:version="1.1.1 (3bf5ae0d25, 2021-09-20)"
   xmlns:inkscape="http://www.inkscape.org/namespaces/inkscape"
   xmlns:sodipodi="http://sodipodi.sourceforge.net/DTD/sodipodi-0.dtd"
   xmlns="http://www.w3.org/2000/svg"
   xmlns:svg="http://www.w3.org/2000/svg"><defs
     id="defs828"><clipPath
       clipPathUnits="userSpaceOnUse"
       id="clipPath860"><path
         d="M 0,0 H 432 V 360 H 0 Z"
         id="path858" /></clipPath><clipPath
       clipPathUnits="userSpaceOnUse"
       id="clipPath872"><path
         d="M 33.31,31.26 H 426.52 V 336.71 H 33.31 Z"
         id="path870" /></clipPath></defs><sodipodi:namedview
     id="namedview826"
     pagecolor="#ffffff"
     bordercolor="#666666"
     borderopacity="1.0"
     inkscape:pageshadow="2"
     inkscape:pageopacity="0.0"
     inkscape:pagecheckerboard="0"
     showgrid="false"
     inkscape:zoom="1.58125"
     inkscape:cx="287.74704"
     inkscape:cy="219.76285"
     inkscape:window-width="1920"
     inkscape:window-height="1009"
     inkscape:window-x="1358"
     inkscape:window-y="-8"
     inkscape:window-maximized="1"
     inkscape:current-layer="g830" /><g
     id="g830"
     inkscape:groupmode="layer"
     inkscape:label="AccPerYr"
     transform="matrix(1.3333333,0,0,-1.3333333,0,480)"><g
       id="g832" /><g
       id="g834" /><g
       id="g836" /><g
       id="g838" /><g
       id="g840" /><g
       id="g842" /><g
       id="g844" /><g
       id="g846" /><g
       id="g848" /><g
       id="g850" /><g
       id="g852" /><g
       id="g854"><g
         id="g856"
         clip-path="url(#clipPath860)"><path
           d="M 0,0 H 432 V 360 H 0 Z"
           style="fill:#ffffff;fill-opacity:1;fill-rule:nonzero;stroke:#ffffff;stroke-width:1.07;stroke-linecap:round;stroke-linejoin:round;stroke-miterlimit:10;stroke-dasharray:none;stroke-opacity:1"
           id="path862" /></g></g><g
       id="g864" /><g
       id="g866"><g
         id="g868"
         clip-path="url(#clipPath872)"><path
           d="M 33.31,31.26 H 426.52 V 336.71 H 33.31 Z"
           style="fill:#ffffff;fill-opacity:1;fill-rule:nonzero;stroke:none"
           id="path874" /><path
           d="m 51.18,45.14 h 5.63 v 233.05 h -5.63 z"
           style="fill:#2e4bb1;fill-opacity:1;fill-rule:nonzero;stroke:none"
           id="path876" /><path
           d="m 58.22,45.14 h 5.63 v 188.42 h -5.63 z"
           style="fill:#2e4bb1;fill-opacity:1;fill-rule:nonzero;stroke:none"
           id="path878" /><path
           d="m 65.25,45.14 h 5.63 v 277.68 h -5.63 z"
           style="fill:#2e4bb1;fill-opacity:1;fill-rule:nonzero;stroke:none"
           id="path880" /><path
           d="m 72.29,45.14 h 5.63 v 247.93 h -5.63 z"
           style="fill:#2e4bb1;fill-opacity:1;fill-rule:nonzero;stroke:none"
           id="path882" /><path
           d="m 79.33,45.14 h 5.63 v 228.09 h -5.63 z"
           style="fill:#2e4bb1;fill-opacity:1;fill-rule:nonzero;stroke:none"
           id="path884" /><path
           d="m 86.36,45.14 h 5.63 v 178.51 h -5.63 z"
           style="fill:#2e4bb1;fill-opacity:1;fill-rule:nonzero;stroke:none"
           id="path886" /><path
           d="m 93.4,45.14 h 5.63 v 203.3 H 93.4 Z"
           style="fill:#2e4bb1;fill-opacity:1;fill-rule:nonzero;stroke:none"
           id="path888" /><path
           d="m 100.44,45.14 h 5.63 V 193.9 h -5.63 z"
           style="fill:#2e4bb1;fill-opacity:1;fill-rule:nonzero;stroke:none"
           id="path890" /><path
           d="m 107.47,45.14 h 5.63 v 178.51 h -5.63 z"
           style="fill:#2e4bb1;fill-opacity:1;fill-rule:nonzero;stroke:none"
           id="path892" /><path
           d="m 114.51,45.14 h 5.63 v 203.3 h -5.63 z"
           style="fill:#2e4bb1;fill-opacity:1;fill-rule:nonzero;stroke:none"
           id="path894" /><path
           d="m 121.55,45.14 h 5.63 v 128.92 h -5.63 z"
           style="fill:#2e4bb1;fill-opacity:1;fill-rule:nonzero;stroke:none"
           id="path896" /><path
           d="m 128.58,45.14 h 5.63 v 133.88 h -5.63 z"
           style="fill:#2e4bb1;fill-opacity:1;fill-rule:nonzero;stroke:none"
           id="path898" /><path
           d="m 135.62,45.14 h 5.63 v 138.84 h -5.63 z"
           style="fill:#2e4bb1;fill-opacity:1;fill-rule:nonzero;stroke:none"
           id="path900" /><path
           d="m 142.66,45.14 h 5.63 v 143.8 h -5.63 z"
           style="fill:#2e4bb1;fill-opacity:1;fill-rule:nonzero;stroke:none"
           id="path902" /><path
           d="m 149.69,45.14 h 5.63 v 104.13 h -5.63 z"
           style="fill:#2e4bb1;fill-opacity:1;fill-rule:nonzero;stroke:none"
           id="path904" /><path
           d="m 156.73,45.14 h 5.63 V 193.9 h -5.63 z"
           style="fill:#2e4bb1;fill-opacity:1;fill-rule:nonzero;stroke:none"
           id="path906" /><path
           d="m 163.77,45.14 h 5.63 v 158.67 h -5.63 z"
           style="fill:#2e4bb1;fill-opacity:1;fill-rule:nonzero;stroke:none"
           id="path908" /><path
           d="m 170.8,45.14 h 5.63 v 153.71 h -5.63 z"
           style="fill:#2e4bb1;fill-opacity:1;fill-rule:nonzero;stroke:none"
           id="path910" /><path
           d="m 177.84,45.14 h 5.63 v 198.34 h -5.63 z"
           style="fill:#2e4bb1;fill-opacity:1;fill-rule:nonzero;stroke:none"
           id="path912" /><path
           d="m 184.88,45.14 h 5.63 v 198.34 h -5.63 z"
           style="fill:#2e4bb1;fill-opacity:1;fill-rule:nonzero;stroke:none"
           id="path914" /><path
           d="m 191.92,45.14 h 5.63 v 133.88 h -5.63 z"
           style="fill:#2e4bb1;fill-opacity:1;fill-rule:nonzero;stroke:none"
           id="path916" /><path
           d="m 198.95,45.14 h 5.63 v 138.84 h -5.63 z"
           style="fill:#2e4bb1;fill-opacity:1;fill-rule:nonzero;stroke:none"
           id="path918" /><path
           d="m 205.99,45.14 h 5.63 v 163.63 h -5.63 z"
           style="fill:#2e4bb1;fill-opacity:1;fill-rule:nonzero;stroke:none"
           id="path920" /><path
           d="m 213.03,45.14 h 5.63 v 163.63 h -5.63 z"
           style="fill:#2e4bb1;fill-opacity:1;fill-rule:nonzero;stroke:none"
           id="path922" /><path
           d="m 220.06,45.14 h 5.63 v 163.63 h -5.63 z"
           style="fill:#2e4bb1;fill-opacity:1;fill-rule:nonzero;stroke:none"
           id="path924" /><path
           d="m 227.1,45.14 h 5.63 v 173.55 h -5.63 z"
           style="fill:#2e4bb1;fill-opacity:1;fill-rule:nonzero;stroke:none"
           id="path926" /><path
           d="m 234.14,45.14 h 5.63 v 138.84 h -5.63 z"
           style="fill:#2e4bb1;fill-opacity:1;fill-rule:nonzero;stroke:none"
           id="path928" /><path
           d="m 241.17,45.14 h 5.63 v 153.71 h -5.63 z"
           style="fill:#2e4bb1;fill-opacity:1;fill-rule:nonzero;stroke:none"
           id="path930" /><path
           d="m 248.21,45.14 h 5.63 v 128.92 h -5.63 z"
           style="fill:#2e4bb1;fill-opacity:1;fill-rule:nonzero;stroke:none"
           id="path932" /><path
           d="m 255.25,45.14 h 5.63 v 133.88 h -5.63 z"
           style="fill:#2e4bb1;fill-opacity:1;fill-rule:nonzero;stroke:none"
           id="path934" /><path
           d="m 262.28,45.14 h 5.63 v 133.88 h -5.63 z"
           style="fill:#2e4bb1;fill-opacity:1;fill-rule:nonzero;stroke:none"
           id="path936" /><path
           d="m 269.32,45.14 h 5.63 v 143.8 h -5.63 z"
           style="fill:#2e4bb1;fill-opacity:1;fill-rule:nonzero;stroke:none"
           id="path938" /><path
           d="m 276.36,45.14 h 5.63 v 104.13 h -5.63 z"
           style="fill:#2e4bb1;fill-opacity:1;fill-rule:nonzero;stroke:none"
           id="path940" /><path
           d="m 283.39,45.14 h 5.63 v 79.34 h -5.63 z"
           style="fill:#2e4bb1;fill-opacity:1;fill-rule:nonzero;stroke:none"
           id="path942" /><path
           d="m 290.43,45.14 h 5.63 v 74.38 h -5.63 z"
           style="fill:#2e4bb1;fill-opacity:1;fill-rule:nonzero;stroke:none"
           id="path944" /><path
           d="m 297.47,45.14 h 5.63 v 119.01 h -5.63 z"
           style="fill:#2e4bb1;fill-opacity:1;fill-rule:nonzero;stroke:none"
           id="path946" /><path
           d="m 304.5,45.14 h 5.63 v 84.3 h -5.63 z"
           style="fill:#2e4bb1;fill-opacity:1;fill-rule:nonzero;stroke:none"
           id="path948" /><path
           d="m 311.54,45.14 h 5.63 v 89.25 h -5.63 z"
           style="fill:#2e4bb1;fill-opacity:1;fill-rule:nonzero;stroke:none"
           id="path950" /><path
           d="m 318.58,45.14 h 5.63 v 79.34 h -5.63 z"
           style="fill:#2e4bb1;fill-opacity:1;fill-rule:nonzero;stroke:none"
           id="path952" /><path
           d="m 325.61,45.14 h 5.63 v 59.5 h -5.63 z"
           style="fill:#2e4bb1;fill-opacity:1;fill-rule:nonzero;stroke:none"
           id="path954" /><path
           d="m 332.65,45.14 h 5.63 v 94.21 h -5.63 z"
           style="fill:#2e4bb1;fill-opacity:1;fill-rule:nonzero;stroke:none"
           id="path956" /><path
           d="m 339.69,45.14 h 5.63 v 114.05 h -5.63 z"
           style="fill:#2e4bb1;fill-opacity:1;fill-rule:nonzero;stroke:none"
           id="path958" /><path
           d="m 346.72,45.14 h 5.63 v 49.59 h -5.63 z"
           style="fill:#2e4bb1;fill-opacity:1;fill-rule:nonzero;stroke:none"
           id="path960" /><path
           d="m 353.76,45.14 h 5.63 v 74.38 h -5.63 z"
           style="fill:#2e4bb1;fill-opacity:1;fill-rule:nonzero;stroke:none"
           id="path962" /><path
           d="m 360.8,45.14 h 5.63 v 39.67 h -5.63 z"
           style="fill:#2e4bb1;fill-opacity:1;fill-rule:nonzero;stroke:none"
           id="path964" /><path
           d="m 367.83,45.14 h 5.63 v 34.71 h -5.63 z"
           style="fill:#2e4bb1;fill-opacity:1;fill-rule:nonzero;stroke:none"
           id="path966" /><path
           d="m 374.87,45.14 h 5.63 v 54.54 h -5.63 z"
           style="fill:#2e4bb1;fill-opacity:1;fill-rule:nonzero;stroke:none"
           id="path968" /><path
           d="m 381.91,45.14 h 5.63 v 24.79 h -5.63 z"
           style="fill:#2e4bb1;fill-opacity:1;fill-rule:nonzero;stroke:none"
           id="path970" /><path
           d="m 388.94,45.14 h 5.63 v 54.54 h -5.63 z"
           style="fill:#2e4bb1;fill-opacity:1;fill-rule:nonzero;stroke:none"
           id="path972" /><path
           d="m 395.98,45.14 h 5.63 v 69.42 h -5.63 z"
           style="fill:#2e4bb1;fill-opacity:1;fill-rule:nonzero;stroke:none"
           id="path974" /><path
           d="m 403.02,45.14 h 5.63 v 19.83 h -5.63 z"
           style="fill:#2e4bb1;fill-opacity:1;fill-rule:nonzero;stroke:none"
           id="path976" /><path
           d="m 53.99,270.26 7.04,9.92 h 7.04 l 7.04,-10.91 7.03,2.98 7.04,-25.79 7.04,-13.88 7.03,-4.96 7.04,-9.92 7.04,-13.88 7.03,-1.99 7.04,-6.94 7.04,-19.83 7.03,3.97 7.04,4.95 7.04,2.98 7.03,10.91 7.04,18.84 7.04,-2.97 7.03,-3.97 7.04,1.98 7.04,-6.94 7.03,-6.94 7.04,7.93 h 7.04 l 7.03,-1.98 7.04,-6.94 7.04,-5.95 7.03,-7.94 7.04,0.99 7.04,-9.91 7.03,-9.92 7.04,-11.9 7.04,-2.98 7.03,-11.9 7.04,-2.97 h 7.04 l 7.03,-2.98 7.04,-4.96 7.04,5.96 7.03,-7.94 7.04,-0.99 7.04,-3.97 7.04,-11.9 7.03,-11.9 7.04,-4.96 7.04,-3.96 7.03,5.95 7.04,-2.98 7.04,-6.94"
           style="fill:none;stroke:#e61c23;stroke-width:2.13;stroke-linecap:butt;stroke-linejoin:round;stroke-miterlimit:10;stroke-dasharray:none;stroke-opacity:1"
           id="path978" /></g></g><g
       id="g980" /><g
       id="g982" /><g
       id="g984" /><g
       id="g986" /><g
       id="g988" /><g
       id="g990" /><g
       id="g992" /><g
       id="g994" /><g
       id="g996" /><g
       id="g998" /><g
       id="g1000" /><g
       id="g1002" /><g
       id="g1004"
       transform="matrix(1,0,0,0.96117955,0,1.2135274)"><path
         d="M 33.31,31.26 V 336.71"
         style="fill:none;stroke:#000000;stroke-width:1.07;stroke-linecap:butt;stroke-linejoin:round;stroke-miterlimit:10;stroke-dasharray:none;stroke-opacity:1"
         id="path1006" /></g><g
       id="g1008" /><g
       id="g1010" /><g
       id="g1012"><text
         transform="matrix(1,0,0,-1,23.37,41.91)"
         style="font-variant:normal;font-weight:normal;font-size:9px;font-family:Helvetica;-inkscape-font-specification:Helvetica;writing-mode:lr-tb;fill:#4d4d4d;fill-opacity:1;fill-rule:nonzero;stroke:none"
         id="text1016"><tspan
           x="0"
           y="0"
           id="tspan1014">0</tspan></text><text
         transform="matrix(1,0,0,-1,18.37,141.08)"
         style="font-variant:normal;font-weight:normal;font-size:9px;font-family:Helvetica;-inkscape-font-specification:Helvetica;writing-mode:lr-tb;fill:#4d4d4d;fill-opacity:1;fill-rule:nonzero;stroke:none"
         id="text1020"><tspan
           x="0 5.0040002"
           y="0"
           sodipodi:role="line"
           id="tspan1018">20</tspan></text><text
         transform="matrix(1,0,0,-1,18.37,240.26)"
         style="font-variant:normal;font-weight:normal;font-size:9px;font-family:Helvetica;-inkscape-font-specification:Helvetica;writing-mode:lr-tb;fill:#4d4d4d;fill-opacity:1;fill-rule:nonzero;stroke:none"
         id="text1024"><tspan
           x="0 5.0040002"
           y="0"
           sodipodi:role="line"
           id="tspan1022">40</tspan></text></g><g
       id="g1026" /><g
       id="g1028"><path
         d="m 30.57,45.14 h 2.74"
         style="fill:none;stroke:#333333;stroke-width:1.07;stroke-linecap:butt;stroke-linejoin:round;stroke-miterlimit:10;stroke-dasharray:none;stroke-opacity:1"
         id="path1030" /><path
         d="m 30.57,144.32 h 2.74"
         style="fill:none;stroke:#333333;stroke-width:1.07;stroke-linecap:butt;stroke-linejoin:round;stroke-miterlimit:10;stroke-dasharray:none;stroke-opacity:1"
         id="path1032" /><path
         d="m 30.57,243.49 h 2.74"
         style="fill:none;stroke:#333333;stroke-width:1.07;stroke-linecap:butt;stroke-linejoin:round;stroke-miterlimit:10;stroke-dasharray:none;stroke-opacity:1"
         id="path1034" /></g><g
       id="g1036" /><g
       id="g1038" /><g
       id="g1040" /><g
       id="g1042" /><g
       id="g1044" /><g
       id="g1046" /><g
       id="g1048"><path
         d="M 33.31,31.26 H 426.52"
         style="fill:none;stroke:#000000;stroke-width:1.07;stroke-linecap:butt;stroke-linejoin:round;stroke-miterlimit:10;stroke-dasharray:none;stroke-opacity:1"
         id="path1050" /></g><g
       id="g1052" /><g
       id="g1054" /><g
       id="g1056"><path
         d="m 53.99,28.52 v 2.74"
         style="fill:none;stroke:#333333;stroke-width:1.07;stroke-linecap:butt;stroke-linejoin:round;stroke-miterlimit:10;stroke-dasharray:none;stroke-opacity:1"
         id="path1058" /><path
         d="m 124.36,28.52 v 2.74"
         style="fill:none;stroke:#333333;stroke-width:1.07;stroke-linecap:butt;stroke-linejoin:round;stroke-miterlimit:10;stroke-dasharray:none;stroke-opacity:1"
         id="path1060" /><path
         d="m 194.73,28.52 v 2.74"
         style="fill:none;stroke:#333333;stroke-width:1.07;stroke-linecap:butt;stroke-linejoin:round;stroke-miterlimit:10;stroke-dasharray:none;stroke-opacity:1"
         id="path1062" /><path
         d="m 265.1,28.52 v 2.74"
         style="fill:none;stroke:#333333;stroke-width:1.07;stroke-linecap:butt;stroke-linejoin:round;stroke-miterlimit:10;stroke-dasharray:none;stroke-opacity:1"
         id="path1064" /><path
         d="m 335.46,28.52 v 2.74"
         style="fill:none;stroke:#333333;stroke-width:1.07;stroke-linecap:butt;stroke-linejoin:round;stroke-miterlimit:10;stroke-dasharray:none;stroke-opacity:1"
         id="path1066" /><path
         d="m 405.83,28.52 v 2.74"
         style="fill:none;stroke:#333333;stroke-width:1.07;stroke-linecap:butt;stroke-linejoin:round;stroke-miterlimit:10;stroke-dasharray:none;stroke-opacity:1"
         id="path1068" /></g><g
       id="g1070" /><g
       id="g1072"><text
         transform="matrix(1,0,0,-1,43.99,19.87)"
         style="font-variant:normal;font-weight:normal;font-size:9px;font-family:Helvetica;-inkscape-font-specification:Helvetica;writing-mode:lr-tb;fill:#4d4d4d;fill-opacity:1;fill-rule:nonzero;stroke:none"
         id="text1076"><tspan
           x="0 5.0040002 10.008 15.012"
           y="0"
           sodipodi:role="line"
           id="tspan1074">1970</tspan></text><text
         transform="matrix(1,0,0,-1,114.35,19.87)"
         style="font-variant:normal;font-weight:normal;font-size:9px;font-family:Helvetica;-inkscape-font-specification:Helvetica;writing-mode:lr-tb;fill:#4d4d4d;fill-opacity:1;fill-rule:nonzero;stroke:none"
         id="text1080"><tspan
           x="0 5.0040002 10.008 15.012"
           y="0"
           sodipodi:role="line"
           id="tspan1078">1980</tspan></text><text
         transform="matrix(1,0,0,-1,184.72,19.87)"
         style="font-variant:normal;font-weight:normal;font-size:9px;font-family:Helvetica;-inkscape-font-specification:Helvetica;writing-mode:lr-tb;fill:#4d4d4d;fill-opacity:1;fill-rule:nonzero;stroke:none"
         id="text1084"><tspan
           x="0 5.0040002 10.008 15.012"
           y="0"
           sodipodi:role="line"
           id="tspan1082">1990</tspan></text><text
         transform="matrix(1,0,0,-1,255.09,19.87)"
         style="font-variant:normal;font-weight:normal;font-size:9px;font-family:Helvetica;-inkscape-font-specification:Helvetica;writing-mode:lr-tb;fill:#4d4d4d;fill-opacity:1;fill-rule:nonzero;stroke:none"
         id="text1088"><tspan
           x="0 5.0040002 10.008 15.012"
           y="0"
           sodipodi:role="line"
           id="tspan1086">2000</tspan></text><text
         transform="matrix(1,0,0,-1,325.46,19.87)"
         style="font-variant:normal;font-weight:normal;font-size:9px;font-family:Helvetica;-inkscape-font-specification:Helvetica;writing-mode:lr-tb;fill:#4d4d4d;fill-opacity:1;fill-rule:nonzero;stroke:none"
         id="text1092"><tspan
           x="0 5.0040002 10.008 15.012"
           y="0"
           sodipodi:role="line"
           id="tspan1090">2010</tspan></text><text
         transform="matrix(1,0,0,-1,395.82,19.87)"
         style="font-variant:normal;font-weight:normal;font-size:9px;font-family:Helvetica;-inkscape-font-specification:Helvetica;writing-mode:lr-tb;fill:#4d4d4d;fill-opacity:1;fill-rule:nonzero;stroke:none"
         id="text1096"><tspan
           x="0 5.0040002 10.008 15.012"
           y="0"
           sodipodi:role="line"
           id="tspan1094">2020</tspan></text></g><g
       id="g1098" /><g
       id="g1100" /><g
       id="g1102" /><g
       id="g1104" /><g
       id="g1106" /><g
       id="g1108"
       transform="translate(-13.754941,0.94861662)"><text
         transform="matrix(1,0,0,-1,219.07,7.73)"
         style="font-style:normal;font-variant:normal;font-weight:normal;font-stretch:normal;font-size:11px;font-family:Georgia;-inkscape-font-specification:'Georgia, Normal';font-variant-ligatures:normal;font-variant-caps:normal;font-variant-numeric:normal;font-variant-east-asian:normal;writing-mode:lr-tb;fill:#000000;fill-opacity:1;fill-rule:nonzero;stroke:none"
         id="text1112"><tspan
           x="0 5.7969999 11.913 18.028999"
           y="0"
           sodipodi:role="line"
           id="tspan1110">Year</tspan></text></g><g
       id="g1114" /><g
       id="g1116"><text
         transform="matrix(0,1,1,0,13.38,119.46)"
         style="font-variant:normal;font-weight:normal;font-size:11px;font-family:Georgia;-inkscape-font-specification:'Georgia, Normal';writing-mode:lr-tb;fill:#000000;fill-opacity:1;fill-rule:nonzero;stroke:none;font-style:normal;font-stretch:normal;font-variant-ligatures:normal;font-variant-caps:normal;font-variant-numeric:normal;font-variant-east-asian:normal"
         id="text1120"><tspan
           x="0 7.9419999 14.058 23.221001 29.337 35.452999 39.116001 42.174 48.290001 51.348 54.405998 60.577 66.693001 69.750999 75.866997 78.308998 81.366997 88.704002 94.204002 99.704002 102.146 108.262 114.378 120.494 123.552"
           y="0"
           sodipodi:role="line"
           id="tspan1118">Number of Fatal Accidents</tspan></text></g><g
       id="g1122" /><g
       id="g1124" /><g
       id="g1126" /><g
       id="g1128" /><g
       id="g1130" /><g
       id="g1132"
       transform="translate(-31.5,3)"><text
         transform="matrix(1,0,0,-1,33.31,345.19)"
         style="font-style:normal;font-variant:normal;font-weight:normal;font-stretch:normal;font-size:14px;font-family:Georgia;-inkscape-font-specification:'Georgia, Normal';font-variant-ligatures:normal;font-variant-caps:normal;font-variant-numeric:normal;font-variant-east-asian:normal;writing-mode:lr-tb;fill:#000000;fill-opacity:1;fill-rule:nonzero;stroke:none"
         id="text1136"><tspan
           sodipodi:role="line"
           id="tspan7682"
           x="0"
           y="0">PASSENGER FLIGHTS WITH FATAL ACCIDENTS EACH YEAR</tspan></text></g><g
       id="g1138" /><g
       id="g1140" /><g
       id="g1142" /><g
       id="g1144" /><g
       id="g1146" /><g
       id="g1148" /><text
       xml:space="preserve"
       style="font-style:normal;font-variant:normal;font-weight:normal;font-stretch:normal;font-size:9px;line-height:1.25;font-family:Georgia;-inkscape-font-specification:'Georgia, Normal';font-variant-ligatures:normal;font-variant-caps:normal;font-variant-numeric:normal;font-variant-east-asian:normal;fill:#000000;fill-opacity:1;stroke:none;stroke-width:0.75"
       x="2.1284587"
       y="-335.89328"
       id="text56695"
       transform="scale(1,-1)"><tspan
         sodipodi:role="line"
         id="tspan58641"
         x="2.1284587"
         y="-335.89328">With 5-year running average</tspan></text></g></svg>
