<?xml version="1.0" encoding="UTF-8" standalone="no"?>
<!-- Created with Inkscape (http://www.inkscape.org/) -->

<svg
   version="1.1"
   id="svg82926"
   xml:space="preserve"
   width="1152"
   height="480"
   viewBox="0 0 1152 480"
   sodipodi:docname="AccPerMFlt.svg"
   inkscape:version="1.1.1 (3bf5ae0d25, 2021-09-20)"
   xmlns:inkscape="http://www.inkscape.org/namespaces/inkscape"
   xmlns:sodipodi="http://sodipodi.sourceforge.net/DTD/sodipodi-0.dtd"
   xmlns="http://www.w3.org/2000/svg"
   xmlns:svg="http://www.w3.org/2000/svg"><defs
     id="defs82930"><clipPath
       clipPathUnits="userSpaceOnUse"
       id="clipPath82962"><path
         d="M 0,0 H 864 V 360 H 0 Z"
         id="path82960" /></clipPath><clipPath
       clipPathUnits="userSpaceOnUse"
       id="clipPath82974"><path
         d="M 28.3,31.26 H 858.52 V 336.71 H 28.3 Z"
         id="path82972" /></clipPath></defs><sodipodi:namedview
     id="namedview82928"
     pagecolor="#ffffff"
     bordercolor="#666666"
     borderopacity="1.0"
     inkscape:pageshadow="2"
     inkscape:pageopacity="0.0"
     inkscape:pagecheckerboard="0"
     showgrid="false"
     inkscape:zoom="0.97916667"
     inkscape:cx="576"
     inkscape:cy="240.51064"
     inkscape:window-width="1920"
     inkscape:window-height="1009"
     inkscape:window-x="1358"
     inkscape:window-y="-8"
     inkscape:window-maximized="1"
     inkscape:current-layer="g82932" /><g
     id="g82932"
     inkscape:groupmode="layer"
     inkscape:label="AccPerMFlt"
     transform="matrix(1.3333333,0,0,-1.3333333,0,480)"><g
       id="g82934" /><g
       id="g82936" /><g
       id="g82938" /><g
       id="g82940" /><g
       id="g82942" /><g
       id="g82944" /><g
       id="g82946" /><g
       id="g82948" /><g
       id="g82950" /><g
       id="g82952" /><g
       id="g82954" /><g
       id="g82956"><g
         id="g82958"
         clip-path="url(#clipPath82962)"><path
           d="M 0,0 H 864 V 360 H 0 Z"
           style="fill:#ffffff;fill-opacity:1;fill-rule:nonzero;stroke:#ffffff;stroke-width:1.07;stroke-linecap:round;stroke-linejoin:round;stroke-miterlimit:10;stroke-dasharray:none;stroke-opacity:1"
           id="path82964" /></g></g><g
       id="g82966" /><g
       id="g82968"><g
         id="g82970"
         clip-path="url(#clipPath82974)"><path
           d="M 28.3,31.26 H 858.52 V 336.71 H 28.3 Z"
           style="fill:#ffffff;fill-opacity:1;fill-rule:nonzero;stroke:none"
           id="path82976" /><path
           d="M 66.04,45.14 H 77.93 V 279.05 H 66.04 Z"
           style="fill:#2e4bb1;fill-opacity:1;fill-rule:nonzero;stroke:none"
           id="path82978" /><path
           d="M 80.9,45.14 H 92.79 V 233.4 H 80.9 Z"
           style="fill:#2e4bb1;fill-opacity:1;fill-rule:nonzero;stroke:none"
           id="path82980" /><path
           d="m 95.75,45.14 h 11.89 V 322.82 H 95.75 Z"
           style="fill:#2e4bb1;fill-opacity:1;fill-rule:nonzero;stroke:none"
           id="path82982" /><path
           d="M 110.61,45.14 H 122.5 V 286.11 H 110.61 Z"
           style="fill:#2e4bb1;fill-opacity:1;fill-rule:nonzero;stroke:none"
           id="path82984" /><path
           d="m 125.47,45.14 h 11.89 v 233.91 h -11.89 z"
           style="fill:#2e4bb1;fill-opacity:1;fill-rule:nonzero;stroke:none"
           id="path82986" /><path
           d="m 140.33,45.14 h 11.89 v 183.08 h -11.89 z"
           style="fill:#2e4bb1;fill-opacity:1;fill-rule:nonzero;stroke:none"
           id="path82988" /><path
           d="m 155.18,45.14 h 11.89 v 201.91 h -11.89 z"
           style="fill:#2e4bb1;fill-opacity:1;fill-rule:nonzero;stroke:none"
           id="path82990" /><path
           d="m 170.04,45.14 h 11.89 v 142.6 h -11.89 z"
           style="fill:#2e4bb1;fill-opacity:1;fill-rule:nonzero;stroke:none"
           id="path82992" /><path
           d="m 184.9,45.14 h 11.89 V 211.75 H 184.9 Z"
           style="fill:#2e4bb1;fill-opacity:1;fill-rule:nonzero;stroke:none"
           id="path82994" /><path
           d="m 199.75,45.14 h 11.89 v 181.2 h -11.89 z"
           style="fill:#2e4bb1;fill-opacity:1;fill-rule:nonzero;stroke:none"
           id="path82996" /><path
           d="M 214.61,45.14 H 226.5 V 159.51 H 214.61 Z"
           style="fill:#2e4bb1;fill-opacity:1;fill-rule:nonzero;stroke:none"
           id="path82998" /><path
           d="m 229.47,45.14 h 11.89 v 123.78 h -11.89 z"
           style="fill:#2e4bb1;fill-opacity:1;fill-rule:nonzero;stroke:none"
           id="path83000" /><path
           d="m 244.33,45.14 h 11.89 v 127.54 h -11.89 z"
           style="fill:#2e4bb1;fill-opacity:1;fill-rule:nonzero;stroke:none"
           id="path83002" /><path
           d="m 259.18,45.14 h 11.89 v 127.07 h -11.89 z"
           style="fill:#2e4bb1;fill-opacity:1;fill-rule:nonzero;stroke:none"
           id="path83004" /><path
           d="m 274.04,45.14 h 11.89 v 86.6 h -11.89 z"
           style="fill:#2e4bb1;fill-opacity:1;fill-rule:nonzero;stroke:none"
           id="path83006" /><path
           d="m 288.9,45.14 h 11.89 v 118.6 H 288.9 Z"
           style="fill:#2e4bb1;fill-opacity:1;fill-rule:nonzero;stroke:none"
           id="path83008" /><path
           d="m 303.75,45.14 h 11.89 v 118.6 h -11.89 z"
           style="fill:#2e4bb1;fill-opacity:1;fill-rule:nonzero;stroke:none"
           id="path83010" /><path
           d="M 318.61,45.14 H 330.5 V 155.27 H 318.61 Z"
           style="fill:#2e4bb1;fill-opacity:1;fill-rule:nonzero;stroke:none"
           id="path83012" /><path
           d="m 333.47,45.14 h 11.89 v 135.54 h -11.89 z"
           style="fill:#2e4bb1;fill-opacity:1;fill-rule:nonzero;stroke:none"
           id="path83014" /><path
           d="m 348.33,45.14 h 11.89 v 134.13 h -11.89 z"
           style="fill:#2e4bb1;fill-opacity:1;fill-rule:nonzero;stroke:none"
           id="path83016" /><path
           d="m 363.18,45.14 h 11.89 v 87.07 h -11.89 z"
           style="fill:#2e4bb1;fill-opacity:1;fill-rule:nonzero;stroke:none"
           id="path83018" /><path
           d="m 378.04,45.14 h 11.89 v 91.78 h -11.89 z"
           style="fill:#2e4bb1;fill-opacity:1;fill-rule:nonzero;stroke:none"
           id="path83020" /><path
           d="m 392.9,45.14 h 11.89 V 149.15 H 392.9 Z"
           style="fill:#2e4bb1;fill-opacity:1;fill-rule:nonzero;stroke:none"
           id="path83022" /><path
           d="m 407.75,45.14 h 11.89 v 96.95 h -11.89 z"
           style="fill:#2e4bb1;fill-opacity:1;fill-rule:nonzero;stroke:none"
           id="path83024" /><path
           d="M 422.61,45.14 H 434.5 V 135.5 H 422.61 Z"
           style="fill:#2e4bb1;fill-opacity:1;fill-rule:nonzero;stroke:none"
           id="path83026" /><path
           d="m 437.47,45.14 h 11.89 v 91.3 h -11.89 z"
           style="fill:#2e4bb1;fill-opacity:1;fill-rule:nonzero;stroke:none"
           id="path83028" /><path
           d="m 452.33,45.14 h 11.89 v 69.65 h -11.89 z"
           style="fill:#2e4bb1;fill-opacity:1;fill-rule:nonzero;stroke:none"
           id="path83030" /><path
           d="m 467.18,45.14 h 11.89 v 74.83 h -11.89 z"
           style="fill:#2e4bb1;fill-opacity:1;fill-rule:nonzero;stroke:none"
           id="path83032" /><path
           d="m 482.04,45.14 h 11.89 v 62.12 h -11.89 z"
           style="fill:#2e4bb1;fill-opacity:1;fill-rule:nonzero;stroke:none"
           id="path83034" /><path
           d="m 496.9,45.14 h 11.89 v 61.18 H 496.9 Z"
           style="fill:#2e4bb1;fill-opacity:1;fill-rule:nonzero;stroke:none"
           id="path83036" /><path
           d="m 511.75,45.14 h 11.89 v 57.89 h -11.89 z"
           style="fill:#2e4bb1;fill-opacity:1;fill-rule:nonzero;stroke:none"
           id="path83038" /><path
           d="m 526.61,45.14 h 11.89 v 61.18 h -11.89 z"
           style="fill:#2e4bb1;fill-opacity:1;fill-rule:nonzero;stroke:none"
           id="path83040" /><path
           d="m 541.47,45.14 h 11.89 v 47.53 h -11.89 z"
           style="fill:#2e4bb1;fill-opacity:1;fill-rule:nonzero;stroke:none"
           id="path83042" /><path
           d="m 556.33,45.14 h 11.89 v 35.3 h -11.89 z"
           style="fill:#2e4bb1;fill-opacity:1;fill-rule:nonzero;stroke:none"
           id="path83044" /><path
           d="m 571.18,45.14 h 11.89 v 29.65 h -11.89 z"
           style="fill:#2e4bb1;fill-opacity:1;fill-rule:nonzero;stroke:none"
           id="path83046" /><path
           d="m 586.04,45.14 h 11.89 v 46.59 h -11.89 z"
           style="fill:#2e4bb1;fill-opacity:1;fill-rule:nonzero;stroke:none"
           id="path83048" /><path
           d="m 600.9,45.14 h 11.89 v 32 H 600.9 Z"
           style="fill:#2e4bb1;fill-opacity:1;fill-rule:nonzero;stroke:none"
           id="path83050" /><path
           d="m 615.75,45.14 h 11.89 v 32.47 h -11.89 z"
           style="fill:#2e4bb1;fill-opacity:1;fill-rule:nonzero;stroke:none"
           id="path83052" /><path
           d="M 630.61,45.14 H 642.5 V 74.79 H 630.61 Z"
           style="fill:#2e4bb1;fill-opacity:1;fill-rule:nonzero;stroke:none"
           id="path83054" /><path
           d="m 645.47,45.14 h 11.89 v 21.65 h -11.89 z"
           style="fill:#2e4bb1;fill-opacity:1;fill-rule:nonzero;stroke:none"
           id="path83056" /><path
           d="m 660.33,45.14 h 11.89 v 30.12 h -11.89 z"
           style="fill:#2e4bb1;fill-opacity:1;fill-rule:nonzero;stroke:none"
           id="path83058" /><path
           d="m 675.18,45.14 h 11.89 v 35.3 h -11.89 z"
           style="fill:#2e4bb1;fill-opacity:1;fill-rule:nonzero;stroke:none"
           id="path83060" /><path
           d="m 690.04,45.14 h 11.89 V 60.2 h -11.89 z"
           style="fill:#2e4bb1;fill-opacity:1;fill-rule:nonzero;stroke:none"
           id="path83062" /><path
           d="m 704.9,45.14 h 11.89 V 67.73 H 704.9 Z"
           style="fill:#2e4bb1;fill-opacity:1;fill-rule:nonzero;stroke:none"
           id="path83064" /><path
           d="m 719.75,45.14 h 11.89 v 11.77 h -11.89 z"
           style="fill:#2e4bb1;fill-opacity:1;fill-rule:nonzero;stroke:none"
           id="path83066" /><path
           d="m 734.61,45.14 h 11.89 v 9.88 h -11.89 z"
           style="fill:#2e4bb1;fill-opacity:1;fill-rule:nonzero;stroke:none"
           id="path83068" /><path
           d="m 749.47,45.14 h 11.89 V 60.2 h -11.89 z"
           style="fill:#2e4bb1;fill-opacity:1;fill-rule:nonzero;stroke:none"
           id="path83070" /><path
           d="m 764.33,45.14 h 11.89 v 6.59 h -11.89 z"
           style="fill:#2e4bb1;fill-opacity:1;fill-rule:nonzero;stroke:none"
           id="path83072" /><path
           d="m 779.18,45.14 h 11.89 v 14.12 h -11.89 z"
           style="fill:#2e4bb1;fill-opacity:1;fill-rule:nonzero;stroke:none"
           id="path83074" /><path
           d="m 794.04,45.14 h 11.89 v 17.41 h -11.89 z"
           style="fill:#2e4bb1;fill-opacity:1;fill-rule:nonzero;stroke:none"
           id="path83076" /><path
           d="m 808.9,45.14 h 11.89 v 9.88 H 808.9 Z"
           style="fill:#2e4bb1;fill-opacity:1;fill-rule:nonzero;stroke:none"
           id="path83078" /><path
           d="m 101.7,279.99 14.85,-9.88 14.86,2.35 14.86,-26.82 14.86,-15.06 14.85,-10.36 14.86,-13.65 14.86,-15.53 14.85,-3.29 14.86,-8 14.86,-18.83 14.86,0.94 14.85,-0.94 14.86,-3.76 14.86,1.88 14.85,9.41 14.86,-6.12 14.86,-5.64 14.86,-0.94 14.85,-8.01 14.86,-8.47 14.86,0.94 14.85,-4.7 14.86,-5.65 14.86,-7.06 14.86,-5.65 14.85,-7.06 14.86,-1.41 14.86,-5.65 14.85,-5.17 14.86,-6.59 14.86,-1.89 14.86,-6.11 14.85,-2.83 14.86,-1.41 14.86,-1.41 14.85,-3.3 14.86,0.48 14.86,-3.3 14.86,-1.41 14.85,-1.88 14.86,-4.24 14.86,-3.76 14.85,-1.89 14.86,-1.88 14.86,1.41 h 14.86"
           style="fill:none;stroke:#e61c23;stroke-width:2.13;stroke-linecap:butt;stroke-linejoin:round;stroke-miterlimit:10;stroke-dasharray:none;stroke-opacity:1"
           id="path83080" /></g></g><g
       id="g83082" /><g
       id="g83084" /><g
       id="g83086" /><g
       id="g83088" /><g
       id="g83090" /><g
       id="g83092" /><g
       id="g83094" /><g
       id="g83096" /><g
       id="g83098" /><g
       id="g83100" /><g
       id="g83102" /><g
       id="g83104" /><g
       id="g83106"
       transform="matrix(1,0,0,0.96994598,0,0.93948862)"><path
         d="M 28.3,31.26 V 336.71"
         style="fill:none;stroke:#000000;stroke-width:1.07;stroke-linecap:butt;stroke-linejoin:round;stroke-miterlimit:10;stroke-dasharray:none;stroke-opacity:1"
         id="path83108" /></g><g
       id="g83110" /><g
       id="g83112" /><g
       id="g83114"><text
         transform="matrix(1,0,0,-1,18.37,41.91)"
         style="font-variant:normal;font-weight:normal;font-size:9px;font-family:Helvetica;-inkscape-font-specification:Helvetica;writing-mode:lr-tb;fill:#4d4d4d;fill-opacity:1;fill-rule:nonzero;stroke:none"
         id="text83118"><tspan
           x="0"
           y="0"
           id="tspan83116">0</tspan></text><text
         transform="matrix(1,0,0,-1,18.37,136.04)"
         style="font-variant:normal;font-weight:normal;font-size:9px;font-family:Helvetica;-inkscape-font-specification:Helvetica;writing-mode:lr-tb;fill:#4d4d4d;fill-opacity:1;fill-rule:nonzero;stroke:none"
         id="text83122"><tspan
           x="0"
           y="0"
           id="tspan83120">2</tspan></text><text
         transform="matrix(1,0,0,-1,18.37,230.17)"
         style="font-variant:normal;font-weight:normal;font-size:9px;font-family:Helvetica;-inkscape-font-specification:Helvetica;writing-mode:lr-tb;fill:#4d4d4d;fill-opacity:1;fill-rule:nonzero;stroke:none"
         id="text83126"><tspan
           x="0"
           y="0"
           id="tspan83124">4</tspan></text><text
         transform="matrix(1,0,0,-1,18.37,324.3)"
         style="font-variant:normal;font-weight:normal;font-size:9px;font-family:Helvetica;-inkscape-font-specification:Helvetica;writing-mode:lr-tb;fill:#4d4d4d;fill-opacity:1;fill-rule:nonzero;stroke:none"
         id="text83130"><tspan
           x="0"
           y="0"
           id="tspan83128">6</tspan></text></g><g
       id="g83132" /><g
       id="g83134"><path
         d="M 25.56,45.14 H 28.3"
         style="fill:none;stroke:#333333;stroke-width:1.07;stroke-linecap:butt;stroke-linejoin:round;stroke-miterlimit:10;stroke-dasharray:none;stroke-opacity:1"
         id="path83136" /><path
         d="M 25.56,139.27 H 28.3"
         style="fill:none;stroke:#333333;stroke-width:1.07;stroke-linecap:butt;stroke-linejoin:round;stroke-miterlimit:10;stroke-dasharray:none;stroke-opacity:1"
         id="path83138" /><path
         d="M 25.56,233.4 H 28.3"
         style="fill:none;stroke:#333333;stroke-width:1.07;stroke-linecap:butt;stroke-linejoin:round;stroke-miterlimit:10;stroke-dasharray:none;stroke-opacity:1"
         id="path83140" /><path
         d="M 25.56,327.53 H 28.3"
         style="fill:none;stroke:#333333;stroke-width:1.07;stroke-linecap:butt;stroke-linejoin:round;stroke-miterlimit:10;stroke-dasharray:none;stroke-opacity:1"
         id="path83142" /></g><g
       id="g83144" /><g
       id="g83146" /><g
       id="g83148" /><g
       id="g83150" /><g
       id="g83152" /><g
       id="g83154" /><g
       id="g83156"><path
         d="M 28.3,31.26 H 858.52"
         style="fill:none;stroke:#000000;stroke-width:1.07;stroke-linecap:butt;stroke-linejoin:round;stroke-miterlimit:10;stroke-dasharray:none;stroke-opacity:1"
         id="path83158" /></g><g
       id="g83160" /><g
       id="g83162" /><g
       id="g83164"><path
         d="m 71.98,28.52 v 2.74"
         style="fill:none;stroke:#333333;stroke-width:1.07;stroke-linecap:butt;stroke-linejoin:round;stroke-miterlimit:10;stroke-dasharray:none;stroke-opacity:1"
         id="path83166" /><path
         d="m 220.55,28.52 v 2.74"
         style="fill:none;stroke:#333333;stroke-width:1.07;stroke-linecap:butt;stroke-linejoin:round;stroke-miterlimit:10;stroke-dasharray:none;stroke-opacity:1"
         id="path83168" /><path
         d="m 369.13,28.52 v 2.74"
         style="fill:none;stroke:#333333;stroke-width:1.07;stroke-linecap:butt;stroke-linejoin:round;stroke-miterlimit:10;stroke-dasharray:none;stroke-opacity:1"
         id="path83170" /><path
         d="m 517.7,28.52 v 2.74"
         style="fill:none;stroke:#333333;stroke-width:1.07;stroke-linecap:butt;stroke-linejoin:round;stroke-miterlimit:10;stroke-dasharray:none;stroke-opacity:1"
         id="path83172" /><path
         d="m 666.27,28.52 v 2.74"
         style="fill:none;stroke:#333333;stroke-width:1.07;stroke-linecap:butt;stroke-linejoin:round;stroke-miterlimit:10;stroke-dasharray:none;stroke-opacity:1"
         id="path83174" /><path
         d="m 814.84,28.52 v 2.74"
         style="fill:none;stroke:#333333;stroke-width:1.07;stroke-linecap:butt;stroke-linejoin:round;stroke-miterlimit:10;stroke-dasharray:none;stroke-opacity:1"
         id="path83176" /></g><g
       id="g83178" /><g
       id="g83180"><text
         transform="matrix(1,0,0,-1,61.97,19.87)"
         style="font-variant:normal;font-weight:normal;font-size:9px;font-family:Helvetica;-inkscape-font-specification:Helvetica;writing-mode:lr-tb;fill:#4d4d4d;fill-opacity:1;fill-rule:nonzero;stroke:none"
         id="text83184"><tspan
           x="0 5.0040002 10.008 15.012"
           y="0"
           sodipodi:role="line"
           id="tspan83182">1970</tspan></text><text
         transform="matrix(1,0,0,-1,210.55,19.87)"
         style="font-variant:normal;font-weight:normal;font-size:9px;font-family:Helvetica;-inkscape-font-specification:Helvetica;writing-mode:lr-tb;fill:#4d4d4d;fill-opacity:1;fill-rule:nonzero;stroke:none"
         id="text83188"><tspan
           x="0 5.0040002 10.008 15.012"
           y="0"
           sodipodi:role="line"
           id="tspan83186">1980</tspan></text><text
         transform="matrix(1,0,0,-1,359.12,19.87)"
         style="font-variant:normal;font-weight:normal;font-size:9px;font-family:Helvetica;-inkscape-font-specification:Helvetica;writing-mode:lr-tb;fill:#4d4d4d;fill-opacity:1;fill-rule:nonzero;stroke:none"
         id="text83192"><tspan
           x="0 5.0040002 10.008 15.012"
           y="0"
           sodipodi:role="line"
           id="tspan83190">1990</tspan></text><text
         transform="matrix(1,0,0,-1,507.69,19.87)"
         style="font-variant:normal;font-weight:normal;font-size:9px;font-family:Helvetica;-inkscape-font-specification:Helvetica;writing-mode:lr-tb;fill:#4d4d4d;fill-opacity:1;fill-rule:nonzero;stroke:none"
         id="text83196"><tspan
           x="0 5.0040002 10.008 15.012"
           y="0"
           sodipodi:role="line"
           id="tspan83194">2000</tspan></text><text
         transform="matrix(1,0,0,-1,656.26,19.87)"
         style="font-variant:normal;font-weight:normal;font-size:9px;font-family:Helvetica;-inkscape-font-specification:Helvetica;writing-mode:lr-tb;fill:#4d4d4d;fill-opacity:1;fill-rule:nonzero;stroke:none"
         id="text83200"><tspan
           x="0 5.0040002 10.008 15.012"
           y="0"
           sodipodi:role="line"
           id="tspan83198">2010</tspan></text><text
         transform="matrix(1,0,0,-1,804.83,19.87)"
         style="font-variant:normal;font-weight:normal;font-size:9px;font-family:Helvetica;-inkscape-font-specification:Helvetica;writing-mode:lr-tb;fill:#4d4d4d;fill-opacity:1;fill-rule:nonzero;stroke:none"
         id="text83204"><tspan
           x="0 5.0040002 10.008 15.012"
           y="0"
           sodipodi:role="line"
           id="tspan83202">2020</tspan></text></g><g
       id="g83206" /><g
       id="g83208" /><g
       id="g83210" /><g
       id="g83212" /><g
       id="g83214" /><g
       id="g83216"><text
         transform="matrix(1,0,0,-1,432.57,7.73)"
         style="font-variant:normal;font-weight:normal;font-size:11px;font-family:Georgia;-inkscape-font-specification:'Georgia, Normal';writing-mode:lr-tb;fill:#000000;fill-opacity:1;fill-rule:nonzero;stroke:none;font-style:normal;font-stretch:normal;font-variant-ligatures:normal;font-variant-caps:normal;font-variant-numeric:normal;font-variant-east-asian:normal"
         id="text83220"><tspan
           x="0 5.7969999 11.913 18.028999"
           y="0"
           sodipodi:role="line"
           id="tspan83218">Year</tspan></text></g><g
       id="g83222" /><g
       id="g83224"><text
         transform="matrix(0,1,1,0,13.38,122.25)"
         style="font-variant:normal;font-weight:normal;font-size:11px;font-family:Georgia;-inkscape-font-specification:'Georgia, Normal';writing-mode:lr-tb;fill:#000000;fill-opacity:1;fill-rule:nonzero;stroke:none;font-style:normal;font-stretch:normal;font-variant-ligatures:normal;font-variant-caps:normal;font-variant-numeric:normal;font-variant-east-asian:normal"
         id="text83228"><tspan
           x="0 7.3369999 12.837 18.337 20.778999 26.895 33.011002 39.126999 42.185001 47.685001 50.743 56.859001 62.974998 66.638 69.695999 78.859001 88.022003 91.080002 97.801003 100.243 102.685 108.801 114.917 117.975"
           y="0"
           sodipodi:role="line"
           id="tspan83226">Accidents per MM Flights</tspan></text></g><g
       id="g83230" /><g
       id="g83232" /><g
       id="g83234" /><g
       id="g83236" /><g
       id="g83238" /><g
       id="g83240"
       transform="translate(-27,1.5)"><text
         transform="matrix(1,0,0,-1,28.3,345.19)"
         style="font-style:normal;font-variant:normal;font-weight:normal;font-stretch:normal;font-size:14px;font-family:Georgia;-inkscape-font-specification:'Georgia, Normal';font-variant-ligatures:normal;font-variant-caps:normal;font-variant-numeric:normal;font-variant-east-asian:normal;writing-mode:lr-tb;fill:#000000;fill-opacity:1;fill-rule:nonzero;stroke:none"
         id="text83244"><tspan
           sodipodi:role="line"
           id="tspan87475"
           x="0"
           y="0">FATAL ACCIDENTS PER MILLION FLIGHTS EACH YEAR</tspan></text></g><g
       id="g83246" /><g
       id="g83248" /><g
       id="g83250" /><g
       id="g83252" /><g
       id="g83254" /><g
       id="g83256" /><text
       xml:space="preserve"
       style="font-style:normal;font-variant:normal;font-weight:normal;font-stretch:normal;font-size:9px;line-height:1.25;font-family:Georgia;-inkscape-font-specification:'Georgia, Normal';font-variant-ligatures:normal;font-variant-caps:normal;font-variant-numeric:normal;font-variant-east-asian:normal;fill:#000000;fill-opacity:1;stroke:none;stroke-width:0.75"
       x="3.6707282"
       y="-334.8508"
       id="text56695"
       transform="scale(1,-1)"><tspan
         sodipodi:role="line"
         id="tspan58641"
         x="3.6707282"
         y="-334.8508">With 5-year running average</tspan></text></g></svg>
